<?xml version="1.0" encoding="UTF-8"?>
<!DOCTYPE svg PUBLIC "-//W3C//DTD SVG 1.1//EN" "http://www.w3.org/Graphics/SVG/1.1/DTD/svg11.dtd">
<!-- Creator: CorelDRAW 2018 (64-Bit) -->
<svg xmlns="http://www.w3.org/2000/svg" xml:space="preserve" width="112.304mm" height="48.7755mm" version="1.1" style="shape-rendering:geometricPrecision; text-rendering:geometricPrecision; image-rendering:optimizeQuality; fill-rule:evenodd; clip-rule:evenodd"
viewBox="0 0 91509.38 39744.05"
 xmlns:xlink="http://www.w3.org/1999/xlink">
 <defs>
  <style type="text/css">
   <![CDATA[
    .fil1 {fill:#E62F4D}
    .fil2 {fill:#E62F4D;fill-rule:nonzero}
    .fil0 {fill:#272439;fill-rule:nonzero}
   ]]>
  </style>
 </defs>
 <g id="Layer_x0020_1">
  <metadata id="CorelCorpID_0Corel-Layer"/>
  <path class="fil0" d="M1143.05 34087.21l972.43 0 1077.54 -6132.54 -972.43 0 -1077.54 6132.54zm10562.07 -1629.51l-2698.33 -4503.03 -762.2 0 -1077.54 6132.54 989.94 0 771 -4494.31 2689.53 4494.31 762.2 0 1077.62 -6132.54 -981.23 0 -771 4503.03zm8030.29 -3618.2l-928.67 5247.71 989.94 0 928.67 -5247.71 2006.29 0 157.67 -884.83 -5011.24 0 -157.67 884.83 2015.01 0zm11026.45 5247.71l166.47 -963.63 -3548.12 0 297.82 -1647.11 3171.42 0 157.67 -911.07 -3171.34 0 297.82 -1682.07 3337.9 0 157.67 -928.67 -4319.12 0c-180.98,1027.92 -360.65,2050.05 -538.77,3066.31 -178.12,1016.26 -357.71,2038.31 -538.77,3066.23l4529.35 0zm6716.13 -6132.54l-981.23 0 -1077.62 6132.54 4214.01 0 157.67 -911.07 -3232.7 0 919.87 -5221.47zm8625.94 0l-981.23 0 -1077.62 6132.54 4214.01 0 157.75 -911.07 -3232.78 0 919.87 -5221.47zm6567.09 6132.54l972.51 0 1077.54 -6132.54 -972.43 0 -1077.62 6132.54zm11324.35 -770.92l-551.89 -692.12c-257,216.09 -540.32,381.1 -849.79,495.01 -309.56,113.83 -607.46,170.79 -893.63,170.79 -397.15,0 -727.16,-64.21 -990.03,-192.71 -262.78,-128.5 -467.23,-296.36 -613.25,-503.73 -145.94,-207.38 -237.93,-445.31 -275.9,-714.04 -37.97,-268.65 -33.65,-543.17 13.12,-823.47 46.69,-280.39 137.22,-557.84 271.58,-832.36 134.37,-274.44 313.87,-518.32 538.77,-731.48 224.89,-213.16 490.61,-385.5 797.24,-516.85 306.62,-131.43 655.62,-197.19 1046.9,-197.19 286.17,0 557.84,51.09 814.75,153.35 257,102.18 478.96,261.32 665.88,477.41l709.56 -657.08c-256.92,-315.34 -554.82,-544.56 -893.55,-687.72 -338.73,-143 -715.43,-214.55 -1130.18,-214.55 -619.03,0 -1168.15,109.43 -1647.03,328.46 -478.88,219.03 -881.9,506.67 -1208.97,862.91 -327.08,356.33 -575.27,756.41 -744.68,1200.34 -169.4,443.84 -254.07,890.62 -254.07,1340.32 0,344.59 52.56,676.07 157.67,994.34 105.11,318.36 267.27,598.74 486.21,841.07 219.03,242.41 500.88,435.2 845.47,578.21 344.59,143.17 759.18,214.71 1244.01,214.71 227.75,0 446.86,-14.59 657.08,-43.84 210.31,-29.17 416.14,-78.88 617.56,-148.95 201.59,-70.08 400.08,-162.07 595.81,-275.99 195.64,-113.91 392.75,-255.45 591.33,-424.86zm8897.52 -516.85l359.18 1287.77 1007.55 0 -1673.35 -6132.54 -1068.82 0 -3828.51 6132.54 1077.62 0 806.04 -1287.77 3320.3 0zm-981.23 -3810.99l779.8 2917.36 -2593.3 0 1813.5 -2917.36zm11981.43 5098.76l-70.08 -175.19 -1471.84 -2041.33c362.11,-52.56 671.67,-153.27 928.67,-302.22 256.92,-148.87 467.23,-325.61 630.76,-529.97 163.54,-204.44 283.24,-426.4 359.18,-665.8 75.94,-239.56 113.91,-476.03 113.91,-709.64 0,-227.83 -37.97,-443.92 -113.91,-648.37 -75.94,-204.44 -189.86,-385.42 -341.66,-543.17 -151.89,-157.75 -343.13,-283.24 -573.81,-376.7 -230.76,-93.46 -503.81,-140.15 -819.15,-140.15 -478.96,0 -953.44,-1.47 -1423.68,-4.4 -470.16,-2.93 -944.64,-4.4 -1423.6,-4.4l-1086.34 6141.34 981.14 0 376.78 -2120.12 1296.65 0 1489.28 2120.12 1147.7 0zm-3390.45 -5238.99l1874.78 0c175.27,0 325.61,27.79 451.26,83.28 125.57,55.49 227.75,126.95 306.62,214.63 78.79,87.59 137.22,188.39 175.19,302.22 37.97,113.91 56.96,229.29 56.96,346.06 0,157.75 -29.17,313.96 -87.59,468.69 -58.42,154.74 -144.55,292.04 -258.47,411.82 -113.91,119.7 -257,216.09 -429.26,289.1 -172.34,73.01 -375.31,109.51 -608.93,109.51l-1866.06 0 385.5 -2225.32z"/>
  <path class="fil1" d="M10028.68 22941.15c1774.63,-890.21 3395.99,-1892.05 5066.98,-2776.8 7096.41,-3757.21 13485.22,-7726.69 21410.8,-10279.97 5129.72,-1652.57 8304.81,-1498.24 13256.65,267.67 3749.63,1337.15 7340.37,3400.15 10646.9,5196.13 4924.38,2674.7 8725.19,5019.39 14387.73,6213.21 5589.86,1178.58 13150.24,2203.81 14883.39,5215.28 1287.2,2250.58 -3421.42,4172.45 -2784.46,5045.71 10604.36,-6398.42 539.34,-9056.58 -6386.85,-10691.96 -3384.99,-799.19 -5398.45,-1207.1 -7308.59,-1852.86 -5481.24,-1853.1 -12307.7,-6621.6 -17923.87,-9363.45 -10065.92,-4914.2 -14782.84,-4603.99 -25054.75,-229.95 -1931.16,822.33 -14822.93,7554.1 -20805.22,10755.02 -1259.9,674.03 -6975.98,3935.58 -5697.5,-81.08l4189.56 -13163.03 -7252.7 415.89 -371.73 1361.1c1524.88,0 2451.19,81.89 2785.11,239.4 947.49,464.78 286.58,2163.15 37.81,2898.54 -958.74,2969.18 -2230.53,6309.52 -2923.71,9313.17 -691.88,2951.83 580.82,4794.66 3550.81,4166.83 2333.12,-493.14 4211.16,-1604.41 6293.63,-2648.87z"/>
  <path class="fil2" d="M14360.35 39743.97l-541.54 0 70.16 -391.45 486.21 3.42c151.8,0 279,-36.02 382.89,-107.88 103.89,-71.87 185.46,-166.63 244.78,-284.13 59.97,-117.58 100.47,-244.86 121.57,-381.75l14.83 -118.72c10.27,-84.99 13.69,-171.2 10.27,-258.47 -3.42,-87.35 -19.39,-169 -47.91,-243.15 -28.6,-74.72 -73.09,-135.83 -134.69,-182.6 -61.03,-46.77 -144.31,-71.87 -248.85,-75.29l-555.15 -1.71 68.45 -392.59 501.61 1.63c162.64,3.5 304.18,36.5 424.53,99.33 120.43,63.39 219.11,148.38 296.11,255.13 77.08,107.23 130.21,229.38 160.44,366.92 30.23,137.46 36.5,282.42 18.25,434.23l-13.12 118.72c-22.33,162.64 -68.45,314.36 -138.11,455.9 -69.59,141.54 -159.22,265.39 -268.73,370.34 -110.17,105.6 -236.87,187.74 -380.61,246 -143.9,58.75 -300.76,87.27 -471.38,86.13zm158.65 -2434.32l-422.82 2434.32 -489.72 0 421.19 -2434.32 491.35 0zm4195.35 0l857.7 1.63c148.3,2.36 282.42,29.74 403.43,82.22 120.92,51.91 215.12,130.7 282.42,235.73 67.96,104.95 95.91,237.85 84.5,399.35 -10.84,132.98 -42.78,244.86 -95.82,336.69 -53.05,91.34 -123.86,168.92 -212.35,232.31 -88.41,63.88 -190.59,118.07 -305.24,163.7l-170.63 82.22 -792.02 0 66.74 -391.45 544.96 3.42c81.57,-1.14 155.14,-16.54 222.53,-46.77 66.74,-30.23 122.14,-73.66 166.06,-131.27 43.92,-57.61 71.95,-127.28 82.79,-209.98 10.27,-72.52 5.05,-135.83 -14.34,-189.53 -19.39,-53.05 -52.48,-95.25 -99.25,-125.48 -46.77,-29.66 -106.74,-46.2 -179.18,-48.48l-419.48 -1.71 -354.29 2041.74 -489.72 0 421.19 -2434.32zm911.31 2434.32l-351.52 -1084.22 493.63 -3.42 379.47 1060.84 0 26.81 -521.58 0zm4266.73 -2434.32l-421.19 2434.32 -490.21 0 422.9 -2434.32 488.49 0zm3506.49 1905.9l850.85 -1905.9 558.08 0 -1203.51 2434.32 -369.12 0 163.7 -528.42zm-215.69 -1905.9l255.7 1949.25 5.13 485.07 -352.74 0 -436.51 -2434.32 528.42 0zm5621.39 2042.88l-68.53 391.45 -1258.84 0 66.82 -391.45 1260.55 0zm-744.11 -2042.88l-422.82 2434.32 -489.72 0 421.19 -2434.32 491.35 0zm762.36 991.74l-66.82 381.18 -1095.06 0 66.82 -381.18 1095.06 0zm332.7 -991.74l-68.53 392.59 -1257.05 0 70.16 -392.59 1255.42 0zm4735.1 0l-422.82 2434.32 -474.81 0 -673.87 -1650.29 -285.93 1650.29 -489.64 0 421.19 -2434.32 476.43 0 675.09 1652 285.93 -1652 488.41 0zm7028.04 1366.07l-628.89 0 58.75 -344.11 485.07 1.22c73.09,0 143.82,-10.35 211.12,-30.88 67.39,-20.53 124.43,-54.19 170.63,-102.1 46.28,-47.42 75.29,-110.74 87.84,-191.24 9.78,-75.86 3.5,-135.75 -19.96,-179.18 -23.3,-43.35 -60.46,-74.72 -111.23,-94.11 -50.76,-19.96 -110.74,-30.23 -179.75,-31.37l-361.22 -1.71 -354.37 2041.74 -489.64 0 421.11 -2434.32 798.95 1.63c105.03,1.22 206.56,13.2 304.18,36.5 98.11,23.47 185.38,60.62 260.75,110.82 75.94,50.19 134.61,116.36 176.9,198.49 41.64,82.79 58.75,184.32 50.76,304.75 -7.99,131.27 -45.63,239.07 -113.51,323.57 -67.96,83.93 -154.74,147.24 -260.18,189.45 -105.03,42.78 -218.05,67.31 -338.4,73.58l-168.92 127.28zm-199.15 1068.25l-759.02 0 257.41 -391.45 516.93 1.71c73.66,0 142.11,-12.55 205.99,-37.65 64.54,-25.18 118.23,-62.25 161.5,-112.45 43.43,-50.28 70.81,-114.16 82.22,-192.3 9.7,-65.59 6.84,-123.2 -8.56,-172.91 -15.4,-49.62 -43.92,-88.49 -86.21,-115.87 -41.64,-26.81 -96.97,-42.21 -166.06,-45.63l-494.77 -1.71 61.68 -344.11 568.43 1.22 83.85 134.04c108.94,5.7 203.71,30.23 284.7,74.23 80.99,43.92 142.68,106.09 184.89,186.52 42.21,79.94 59.32,176.33 51.91,289.35 -11.33,173.48 -62.17,313.79 -152.29,421.11 -90.2,106.74 -205.42,184.89 -345.25,233.94 -139.83,49.13 -288.78,73.09 -447.35,71.95zm4362.47 -2436.03l299.62 1107.53 683.65 -1107.53 556.94 0 -1063.61 1572.63 -146.75 863.4 -498.19 0 158.65 -911.88 -506.75 -1522.44 516.44 -1.71zm7971.95 2436.03l-541.62 0 70.16 -391.45 486.21 3.42c151.8,0 279.08,-36.02 382.97,-107.88 103.81,-71.87 185.46,-166.63 244.78,-284.13 59.89,-117.58 100.39,-244.86 121.49,-381.75l14.83 -118.72c10.35,-84.99 13.69,-171.2 10.35,-258.47 -3.42,-87.35 -19.47,-169 -47.99,-243.15 -28.52,-74.72 -73.01,-135.83 -134.61,-182.6 -61.03,-46.77 -144.39,-71.87 -248.85,-75.29l-555.23 -1.71 68.53 -392.59 501.53 1.63c162.64,3.5 304.18,36.5 424.53,99.33 120.43,63.39 219.19,148.38 296.19,255.13 77,107.23 130.13,229.38 160.36,366.92 30.31,137.46 36.59,282.42 18.25,434.23l-13.12 118.72c-22.25,162.64 -68.45,314.36 -138.03,455.9 -69.67,141.54 -159.3,265.39 -268.81,370.34 -110.08,105.6 -236.79,187.74 -380.61,246 -143.82,58.75 -300.67,87.27 -471.3,86.13zm158.65 -2434.32l-422.9 2434.32 -489.64 0 421.11 -2434.32 491.43 0zm5047.83 441.07l-979.27 1993.25 -538.61 0 1300.97 -2434.32 344.11 0 -127.2 441.07zm194.01 1993.25l-297.33 -2044.59 18.33 -389.74 322.92 0 459.4 2434.32 -503.32 0zm123.77 -906.75l-68.45 393.16 -1252 0 68.45 -393.16 1252 0zm4409.41 -1527.57l-421.19 2434.32 -489.55 0 422.82 -2434.32 487.92 0zm725.86 0l-68.53 392.59 -1927.58 0 68.45 -392.59 1927.66 0zm3509.42 441.07l-979.27 1993.25 -538.69 0 1301.05 -2434.32 344.11 0 -127.2 441.07zm193.93 1993.25l-297.25 -2044.59 18.25 -389.74 322.92 0 459.49 2434.32 -503.41 0zm123.86 -906.75l-68.45 393.16 -1252 0 68.45 -393.16 1252 0z"/>
  <path class="fil1" d="M8102.73 681.45c456.8,449.3 688.94,1010.89 688.94,1662.35 0,644.05 -232.15,1205.63 -703.86,1669.93 -464.29,471.71 -1018.46,703.86 -1662.43,703.86 -643.97,0 -1198.14,-232.15 -1662.35,-703.86 -456.8,-464.29 -688.94,-1025.88 -688.94,-1669.93 0,-651.46 224.65,-1213.05 681.45,-1662.35 449.3,-456.8 1010.89,-681.45 1669.84,-681.45 651.46,0 1213.13,224.65 1677.34,681.45z"/>
 </g>
</svg>
