<svg xmlns="http://www.w3.org/2000/svg" xmlns:xlink="http://www.w3.org/1999/xlink" width="2560" height="1440" stroke="#000" stroke-linecap="round" stroke-linejoin="round" fill="#fff" fill-rule="evenodd"><style><![CDATA[.B{fill-opacity:.41}.C{stroke:none}.D{fill:none}.E{stroke-width:2}.F{fill-rule:nonzero}.G{stroke:#f90}.H{fill-opacity:.67}.I{stroke:#3d85c6}.J{fill-opacity:.7}.K{stroke:#11d0ae}.L{fill:#11d0ae}]]></style><defs><linearGradient id="A" x1="50%" y1="100%" x2="50%" y2="0%"><stop offset="0%" stop-color="#fff"/><stop offset="100%" stop-color="#fff" stop-opacity="0"/></linearGradient><path d="M0 0l4 5h-8z" id="B" class="C"/><path id="C" d="M556.66 1132.71l11.46 12.11h12.33l10.16-12.76-7.13-79.15-21.85.21-4.97 79.59"/><path id="D" d="M573.29 1188.03l-2.23-16.52-10.02-7.2-15.69 4.43-40.41 68.44 17.86 12.56 50.49-61.71"/><path id="E" d="M119.21 55.78c-.37-.29-.9-.22-1.18.14l-3.01 3.81-1.71-1.78c-.32-.33-.86-.35-1.19-.02-.34.32-.35.86-.02 1.19l2.04 2.13c.23.26.56.42.91.42.38 0 .72-.17.96-.47l3.34-4.23c.28-.37.22-.91-.14-1.19z"/></defs><g class="E"><ellipse cx="1117.28" cy="1291.55" fill="#e0e0e0" rx="920.49" ry="18.16" stroke-opacity=".02"/><g stroke="#434343" stroke-linecap="butt" stroke-linejoin="miter" class="F"><path d="M2087.83 1105.77l4.9-.29s8.65 13.27-4.61 34.31l-18.75 2.02 18.46-36.04M835.21 849.42s202.86-169.12 264.27-198.1c-28.11-2.59-41.52-1.29-41.52-1.29s28.55-19.9 72.24-22.07c43.68-2.16 247.84-11.67 367.65-7.35l327.43 17.73c17.3 1.73 50.17 15.15 83.48 46.72h14.27l134.09 120.68-19.03 16.86-1190.34 36.34-12.54-9.52"/><path d="M776.38 823.04l281.58-173.02 38.5-8.22 14.7 9.52-150.95 112.03-114.62 92.12-75.26.87-23.36-19.03 29.41-14.27m-378.9 391.88l362.4-7.88 792.47-11.59 64.35-11.25 275.62-13.84 17.73 9.96 46.29-77.43-32.54-105.37-185.5-58.13-243.05-6.92-746.55 5.19-326.25 54.5-60.16 106.7-9.91 96.59 45.1 19.47"/><path d="M283.94 1184.42s11.47-14.49 11.47-19.03c-2.17-4.54-3.25-4.54-3.25-4.54l.65-20.33s6.92-5.63 4.33-19.68c-2.6-14.06-9.74-71.15-9.3-73.75.43-2.59 2.38-5.62 2.38-8.43s1.51-29.41 5.19-36.99c3.67-7.57 11.02-20.54 11.02-20.54l5.41-3.46s11.25-27.69 30.5-52.34c.65-3.24 9.73-22.92 22.49-30.06 12.76-7.13 59.04-29.41 159.82-45.41 100.78-16.01 228.81-28.12 228.81-28.12l22.93 1.3-12.98 13.84s39.36 12.11 61.42 12.98c22.06.86 758.23-28.99 807.54-32.45s392.74-7.78 407.02-7.78c14.27 0 17.73-3.89 17.73-3.89s18.6 14.71 22.93 39.36c4.32 24.66 2.16 70.93 2.16 70.93s11.68 16.44 13.84 27.26c2.16 10.81-7.79 74.39-6.06 76.99 1.73 2.59 11.68-.87 9.09 22.05-2.6 22.93-10.82 60.99-11.25 65.75s-8.65 39.36-29.85 44.55c-21.19 5.19-147.92 27.69-147.92 27.69s11.24-4.77 7.78-33.74c-3.46-28.99-20.76-101.65-87.37-137.98-66.61-36.34-128.46-31.58-187.28 2.59-58.83 34.17-76.57 93.86-83.49 121.11s-7.35 63.15-7.35 63.15l-792.4 16.87s1.73-116.35-63.59-169.12c-65.31-52.77-111.59-58.83-191.18-37.2-79.58 21.63-99.04 115.05-105.1 147.06-6.05 32.01-2.59 61.86-2.59 61.86l-41.1-3.03s-70.5-2.6-72.45-27.47"/><path d="M838.38 1209.58l-1.5-.89c-7.27-12.9-8.2-26.89-9.17-41.71-.44-6.72-.9-13.66-1.99-20.57-3.96-24.99-4.06-87.78-4.06-94.86l.25-18.45 3.46-.07c-.13 4.58-.25 9.21-.25 18.52 0 7.06.1 69.59 4.01 94.32 1.12 7.07 1.58 14.09 2.03 20.88.95 14.41 1.85 28.03 8.73 40.26.47.83.17 1.88-.66 2.35l-.85.22m-16.15-195.23v-4.32c0-17.38 2.79-74.17 5.91-108.64l1.11-.07c.96-.06 1.68-.88 1.63-1.83-.06-.94-.92-1.61-1.83-1.63l-.58.04c.84-8.81 1.7-15.86 2.53-19.96l3.59-.23c-3.92 16.71-8.9 109.89-8.9 132.32v4.24l-3.46.08m24.25-164.95l2.13-2.56c.34-.39.82-.59 1.3-.59.4 0 .81.15 1.14.44.72.63.79 1.72.16 2.43-.01.01-.05.06-.12.14l-4.61.14"/><path d="M835.01 867.03c3.71-7.48 8.68-14.14 11.47-17.63l4.61-.14c-.93 1.09-7.25 8.57-12 17.45l-4.08.32m34.8-20.63S1109 670.36 1141.44 663.44s168.69-5.62 168.69-5.62l-47.58 164.36-392.74 24.22m496.55-189.02l-18.6 161.77 331.32-11.25s-57.96-125-71.36-145.33c-19.47-2.16-241.36-5.19-241.36-5.19m274.23 6.49l76.13 144.03 225.78-4.32-125.01-129.33-176.9-10.38m-363.04 536.48l-1.5-.86c-2.81-4.82-2.7-11.61-2.56-18.79.07-3.94.15-8.01-.26-11.88l-.09-.87.65-.59c2.04-1.85 3.37-7.21 4.18-13.47l3.54-.15c-.79 6.36-2.22 12.52-4.76 15.52.33 3.82.27 7.72.2 11.5-.12 6.69-.24 13 2.09 16.99.48.82.2 1.89-.63 2.37l-.86.23m1.45-65.51l-.01-.77c-.02-.7-2.24-71.81-1.2-108.79l3.46-.07c-1.04 36.84 1.18 108.05 1.2 108.77l.01.77-3.46.09m-.38-129.98l2.17-39.45c1.62-27.68 3.14-53.82 2.81-64.89-.54-18.23 6.68-43.3 9.11-51.18l3.67-.15c-1.89 5.99-9.87 32.46-9.32 51.22.33 11.22-1.19 37.45-2.81 65.2l-2.16 39.18-3.47.07m23.25-172.99l1.07-1.59c.34-.49.88-.75 1.43-.75a1.7 1.7 0 0 1 .97.3c.61.43.87 1.18.7 1.87l-4.17.17"/><path d="M1298.52 837.14l3.35-5.28 4.17-.17c-.05.19-.14.37-.25.55-.03.04-1.42 2.07-3.12 4.76l-4.15.14m407.71 148.31l-.48-.06c-.92-.27-1.45-1.23-1.18-2.15l5.87-20.4c.13-.67 16.65-79.58 16.09-106.18-.18-7.97-1.48-15.51-3.21-22.14l3.57-.12c1.69 6.66 2.92 14.19 3.1 22.19.56 26.99-15.51 103.83-16.19 107.09l-5.91 20.52c-.22.76-.91 1.25-1.66 1.25m9.91-170.75l-3.22-6.2c-.48-.81-.22-1.88.59-2.38.28-.16.59-.24.9-.24.58 0 1.15.29 1.48.82.19.32 1.89 3.18 4.06 7.92l-3.81.08"/><path d="M1720.29 824.76c-1.43-3.99-2.9-7.4-4.15-10.05l3.81-.08c1.26 2.75 2.66 6.13 4.02 10.02l-3.68.11m161.22 127.6h-14.99c-16.61 0-30.13-13.51-30.13-30.13v-4.9a30.2 30.2 0 0 1 30.13-30.14h14.99a30.2 30.2 0 0 1 30.14 30.14v4.9c0 16.62-13.52 30.13-30.14 30.13m-14.99-61.71a26.7 26.7 0 0 0-26.67 26.68v4.9a26.7 26.7 0 0 0 26.67 26.67h14.99a26.7 26.7 0 0 0 26.68-26.67v-4.9a26.7 26.7 0 0 0-26.68-26.68h-14.99m-27.54 121.69c-.84 0-1.58-.6-1.71-1.46-.15-.94.5-1.82 1.44-1.97l177.37-28.39c9.25-2.1 11.2-10.35 11.2-16.91 0-8.19 2.76-43.34 2.89-44.82.07-.88.79-1.61 1.63-1.61.07 0 .15 0 .22.01.96.08 1.66.91 1.6 1.87l-2.88 44.55c0 11.05-4.94 18.25-13.89 20.29-9.47 2.15-170.74 27.35-177.6 28.42l-.27.02m-1545.74 35.18s18.17 1.73 22.93 12.55c4.75 10.81 16.86 56.66 18.59 63.15 1.73 6.48-2.59 12.98-9.08 12.54 0 0 5.62-7.79-1.3-9.95s-9.66-11.1-11.96-21.05c-2.31-9.95-8.94-43.83-7.79-46.57 1.16-2.74-11.39-10.67-11.39-10.67m99.34 104.1s-17.87 2.3-23.36-7.21c-5.47-9.52-18.16-63.44-16.72-74.69s49.31-12.11 49.31-12.11-45.27 8.07-44.41 13.84c.87 5.77 10.96 65.75 17.01 71.52 6.06 5.76 18.17 8.65 18.17 8.65m333.57 6.23c0 83.86-67.98 151.85-151.84 151.85-83.87 0-151.85-67.99-151.85-151.85 0-83.87 67.98-151.85 151.85-151.85 83.86 0 151.84 67.98 151.84 151.85"/><path d="M693.28 1157.85a119 119 0 0 1-118.97 118.98 119 119 0 0 1-118.98-118.98 119 119 0 0 1 118.98-118.98 119 119 0 0 1 118.97 118.98"/><path d="M678.8 1157.85a104.5 104.5 0 0 1-104.49 104.5c-57.72 0-104.51-46.79-104.51-104.5s46.79-104.5 104.51-104.5a104.5 104.5 0 0 1 104.49 104.5"/><path d="M669.92 1157.85c0 52.81-42.81 95.62-95.62 95.62s-95.62-42.81-95.62-95.62 42.81-95.62 95.62-95.62 95.62 42.81 95.62 95.62"/><path d="M646.56 1157.85a72.3 72.3 0 0 1-72.26 72.26 72.3 72.3 0 0 1-72.26-72.26 72.3 72.3 0 0 1 72.26-72.27 72.3 72.3 0 0 1 72.26 72.27"/><path d="M615.47 1157.85a41.2 41.2 0 0 1-41.17 41.17 41.2 41.2 0 0 1-41.18-41.17 41.2 41.2 0 0 1 41.18-41.18 41.2 41.2 0 0 1 41.17 41.18m-.57-72.99l.58 23.36s2.45 14.27 4.61 20.19c2.17 5.91 4.33 17.59 5.05 22.92s-.14 23.93-3.03 30.14c-2.88 6.19-3.89 10.23-5.19 18.01-1.29 7.79-2.74 18.9-2.74 20.05s-1.58 6.34 3.03 9.95c4.61 3.6 14.42-2.45 17.59-8.22 3.18-5.77 15.57-19.18 17.59-23.65s6.78-10.52 4.9-13.26c0 0 4.47-10.82 4.47-20.47 0-9.66-.86-26.82-5.04-36.05s-7.5-17.3-13.13-24.51c-5.61-7.21-22.92-20.47-22.92-20.47l-5.77 2.01"/><use xlink:href="#C"/><path d="M545.31 1166.32l15-7.28 3.71-11.75-9.09-13.54-77.62-17.08-6.38 20.89 74.38 28.76m58.46.26l-15.15-6.97-3.95-11.68 8.83-13.72 77.26-18.62 6.8 20.76-73.79 30.23"/><use xlink:href="#D"/><path d="M603.81 1167.33l-16.42-2.91-9.9 7.34-.57 16.31 52.89 59.33 17.42-13.19-43.42-66.88m-44.71-4.39l15.37 11.05 15.14-11.24-6.03-18.01-18.85.12-5.63 18.08m1333.16-5.09c0 83.86-67.98 151.85-151.84 151.85a151.9 151.9 0 0 1-151.86-151.85A151.9 151.9 0 0 1 1740.42 1006c83.86 0 151.84 67.98 151.84 151.85"/><path d="M1859.39 1157.85a119 119 0 0 1-118.98 118.98 119 119 0 0 1-118.98-118.98 119 119 0 0 1 118.98-118.98 119 119 0 0 1 118.98 118.98"/><path d="M1844.91 1157.85c0 57.71-46.79 104.5-104.49 104.5-57.72 0-104.5-46.79-104.5-104.5s46.78-104.5 104.5-104.5c57.7 0 104.49 46.79 104.49 104.5"/><path d="M1836.03 1157.85c0 52.81-42.81 95.62-95.61 95.62-52.81 0-95.63-42.81-95.63-95.62s42.82-95.62 95.63-95.62c52.8 0 95.61 42.81 95.61 95.62"/><path d="M1812.68 1157.85a72.3 72.3 0 0 1-72.26 72.26 72.3 72.3 0 0 1-72.27-72.26 72.3 72.3 0 0 1 72.27-72.27 72.3 72.3 0 0 1 72.26 72.27"/><path d="M1781.58 1157.85c0 22.74-18.42 41.17-41.17 41.17a41.2 41.2 0 0 1-41.18-41.17 41.2 41.2 0 0 1 41.18-41.18 41.2 41.2 0 0 1 41.17 41.18m-.56-72.99l.57 23.36s2.45 14.27 4.62 20.19c2.16 5.91 4.32 17.59 5.04 22.92s-.14 23.93-3.03 30.14c-2.88 6.19-3.89 10.23-5.19 18.01-1.3 7.79-2.74 18.9-2.74 20.05s-1.58 6.34 3.03 9.95c4.62 3.6 14.42-2.45 17.6-8.22 3.17-5.77 15.57-19.18 17.58-23.65 2.02-4.47 6.78-10.52 4.91-13.26 0 0 4.46-10.82 4.46-20.47 0-9.66-.86-26.82-5.04-36.05s-7.5-17.3-13.13-24.51c-5.61-7.21-22.92-20.47-22.92-20.47l-5.76 2.01"/><use xlink:href="#C" x="1166.11"/><path d="M1711.41 1166.32l15.01-7.28 3.71-11.75-9.09-13.54-77.62-17.08-6.39 20.89 74.38 28.76m58.47.26l-15.14-6.97-3.95-11.68 8.82-13.72 77.26-18.62 6.8 20.76-73.79 30.23"/><use xlink:href="#D" x="1166.11"/><path d="M1769.92 1167.33l-16.43-2.91-9.89 7.34-.57 16.31 52.89 59.33 17.42-13.19-43.42-66.88m-44.7-4.39l15.38 11.05 15.12-11.24-6.02-18.01-18.85.12-5.63 18.08M956.61 819.15s160.33-120.54 190.32-130.92c0 0 6.34-2.88 23.64-3.46 17.3-.57 96.31 0 96.31 0s13.55.87 10.96 12.4c-2.6 11.54-36.62 128.61-36.62 128.61l32.15-2.31 48.01-169.98-176.91 1.73-92.99 55.79-159.61 110.73s-35.9 28.99-33.74 28.99c2.17 0 228.82-15.58 228.82-15.58s-31.14-63.01-37.49-69.06c-6.34-6.06-12.11 2.59-9.23 6.92 2.89 4.32 17.02 38.06 17.02 38.06s-8.66.29-9.8.87c-1.16.58-8.08 4.32-8.08 4.32s-4.33-4.61-6.92-4.03l-68.92 14.41-6.92-7.49m396.2-95.16s19.61 42.68 20.18 57.09c.58 14.42-5.76 10.38-5.76 10.38l7.49 16.15 189.74-6.34s11.54-54.22 10.38-62.29c-1.15-8.07-28.25-58.82-28.25-58.82l-185.71-1.73-8.07 45.56m-152.11 176.9h-13.19c-9.2 0-16.65-7.45-16.65-16.65V881c0-9.2 7.45-16.66 16.65-16.66h13.19c9.2 0 16.65 7.46 16.65 16.66v3.24c0 9.2-7.45 16.65-16.65 16.65m426.19-17.3h-13.19c-9.19 0-16.65-7.45-16.65-16.65v-3.24c0-9.2 7.46-16.66 16.65-16.66h13.19c9.2 0 16.65 7.46 16.65 16.66v3.24c0 9.2-7.45 16.65-16.65 16.65M495.77 921.66h-.1c-.91 0-1.68-.71-1.73-1.63-.06-.95.67-1.77 1.62-1.83l332.91-20.3-.33 3.49-332.37 20.27m332.38-20.26l.33-3.5.58-.03c.9.02 1.77.68 1.82 1.63.06.95-.66 1.77-1.62 1.83l-1.11.07m-333.78 110.22l-1.3-.58-.67-.76 3.43-1.32c.45.71.33 1.66-.32 2.23l-1.14.43"/><path d="M492.4 1010.28l-11.87-13.51-36-49c-.56-.76-.4-1.85.38-2.41.3-.23.66-.34 1.01-.34.54 0 1.06.24 1.4.7l35.91 48.88 12.45 14.16.16.21-3.44 1.31m195.75-100.73l49.74 43.68s8 8.86 24.66 9.08h29.84s6.49-1.51 2.59-5.62c-3.89-4.11-52.55-51.47-52.55-51.47l-54.28 4.33m949.55-198.83l-8.65 102.08h4.62l8.07-94.58-4.04-7.5M943.92 835.01l68.63-2.02c6.34-.58 13.84-5.49 14.99-9.52s1.15-42.96-4.9-51.61c-6.06-8.65-17.88-10.97-28.83-10.1-10.97.86-51.91 6.64-55.66 28.84s5.48 25.37 5.48 25.37H929.5s2.3 11.53 14.42 19.04"/><path d="M932.53 790.17l4.33 60.12-81.32 4.32-.43-12.54 77.42-51.9m214.97 92.99s1.73 6.35 5.19 7.49c3.46 1.16 60.56-2.01 60.56-2.01l5.48 4.9s33.15-5.76 34.88-7.21c1.73-1.44 2.6-10.96-1.73-12.4-4.32-1.44-89.15 2.83-95.15 4.33-5.79 1.44-7.79 1.44-9.23 4.9m426.19-17.3s1.73 6.35 5.19 7.49c3.46 1.16 60.56-2.01 60.56-2.01l5.48 4.9s33.16-5.76 34.89-7.21c1.73-1.44 2.6-10.96-1.73-12.4s-89.15 2.83-95.16 4.33c-5.79 1.44-7.78 1.44-9.23 4.9M999.5 1162.58c-1.5 0-2.92 0-4.25-.01-66.61-.43-129.76-15.57-129.76-15.57l413.52-12.17c.07 5.5-.22 12.74-1.03 19.06l-278.48 8.69m282.01-8.85c.98-7.91.99-16.13.96-18.98l198.59-4.2 4.39.01c-31.14 13.84-69.2 15-111.87 18.46-13.23 1.07-48.16 2.82-92.07 4.71"/><path d="M1277.97 1153.89c.82-6.32 1.1-13.56 1.03-19.05l3.46-.09c.04 2.86.03 11.08-.95 18.99l-3.54.15M403.82 918.63c17.59-25.09 123.13-28.26 136.97-28.26 10.8 0 194.75-15.45 294.22-23.34-1.41 2.83-2.63 5.78-3.49 8.72a26.9 26.9 0 0 0-.52 2.19l-387.96 25.69c-17.59 2.6-39.22 15-39.22 15m430.77-40.92a12.4 12.4 0 0 1 .26-.98c.98-3.37 2.5-6.79 4.23-10.02l54.09-4.02 384.09-24.8 21.26-.75c-2.03 3.32-4.17 7.14-5.03 9.71-.01.06-.3.94-.78 2.48l-15.74.67-442.38 27.71m461.79-28.52l.4-1.24c.92-2.78 3.67-7.42 5.89-10.94l402.51-11.52c3.89-.29 9.03-.53 15.1-.73 1.07 2.95 2.11 6.23 3.03 9.76l-138.38 4.23-288.55 10.44m727.14-1.21s-7.2-8.36-10.95-10.96c-3.76-2.6-10.68-6.92-26.53-7.79a256.3 256.3 0 0 0-9.87-.12c-42.71 0-197.05 3.13-218.8 4.17l-30.48 1.12c-.88-3.51-1.89-6.78-2.93-9.75 19.19-.55 46.21-.71 73.11-.71l94.68.39c21.62 0 86.79.87 111.59 4.04 24.8 3.18 29.41 18.75 29.41 18.75l-9.23.86"/><path d="M831 877.94l.52-2.18c.86-2.95 2.08-5.89 3.49-8.73l4.07-.32c-1.73 3.23-3.25 6.65-4.23 10.02l-.26.98-3.59.23m461.71-28.6l.78-2.48c.86-2.58 3-6.4 5.03-9.72l4.15-.13c-2.22 3.52-4.97 8.17-5.89 10.94-.01.04-.16.47-.4 1.24l-3.67.15m430.61-14.81a110.6 110.6 0 0 0-3.03-9.77l3.68-.11a115.8 115.8 0 0 1 2.92 9.76l-3.57.12m-985.86 200.02l-12.98-18.17 97.75-2.03-.3 17.98-.02.77-84.45 1.45m87.91-1.51l.02-.6.3-18.16 452.93-9.42-.79 18.96-.04 1.45-452.42 7.77m455.88-7.83l.04-1.28.8-19.14 274.59-5.71-12.98 21.63-262.45 4.5"/><path d="M821.91 1033.1l.02-.76.3-17.98 3.46-.08-.3 18.16-.02.6-3.46.06m455.88-7.82l.04-1.46.79-18.96 3.47-.07-.8 19.14-.04 1.28-3.46.07m641.35-173.55s15.28 21.63 27.39 25.95c12.11 4.33 35.19 0 49.31 7.5 14.13 7.5 36.05 33.74 36.05 33.74l50.31-2.88s3.9-40.66-2.16-70.94c-14.41 1.44-160.9 6.63-160.9 6.63"/><path d="M2065.49 902.59l-18.02.35a5.8 5.8 0 0 1-5.88-5.66l-.71-36.6c-.07-3.18 2.46-5.82 5.65-5.88l18.01-.35c3.19-.06 5.82 2.46 5.89 5.65l.71 36.61a5.8 5.8 0 0 1-5.65 5.88"/><path d="M2065.25 897.68h0a3.6 3.6 0 0 0 3.54-3.67l-.6-30.51a3.61 3.61 0 1 0-7.21.15l.6 30.49a3.6 3.6 0 0 0 3.67 3.54M311.26 977.53s5.19 3.52 13.27 3.82c8.07.29 41.81.29 51.61-2.03 9.81-2.3 35.18-28.54 48.73-30.27 13.56-1.73 40.95-6.92 47.29-9.23 6.35-2.3 26.82-21.05 26.82-21.05l-126.58 7.79c-18.46.58-30.65-1.37-30.65-1.37s-29.91 42.17-30.49 52.34"/><path d="M367.85 970.31h-17.51c-4.62 0-8.36-3.74-8.36-8.36v-22.78c0-4.62 3.74-8.36 8.36-8.36h17.51c4.62 0 8.37 3.74 8.37 8.36v22.78c0 4.62-3.75 8.36-8.37 8.36"/><path d="M362.38 964.26h0c-4.63 0-8.37-3.74-8.37-8.36v-8.8c0-4.61 3.74-8.36 8.37-8.36 4.61 0 8.36 3.75 8.36 8.36v8.8c0 4.62-3.75 8.36-8.36 8.36m19.53-32.65l100.78-7.14s-9.95 10.81-19.03 11.46-47.8 6.27-52.56 8.87c-4.75 2.59-19.9 20.11-28.76 22.49l-.43-35.68m329.37-13.19l4.76 5.4 104.89-5.19.21-6.92-109.86 6.71m10.82 11.82l3.89 3.46 95.16-3.46.43-7.14-99.48 7.14"/></g><path d="M813.92 141.66H279.5v408.52h378.55l96.49 79.43v-79.43h59.38V141.66" class="G H"/></g><path d="M772.88 257.83a14.7 14.7 0 0 0-14.43-11.98l-32.87-.14a14.7 14.7 0 0 0-14.03 10.24l-15.4 47.97h-13.91l-13.06-47.39a14.8 14.8 0 0 0-14.23-10.82h-21.19v-16.2a14.7 14.7 0 0 0-14.73-14.73h-53.9v-16.41h53.9v-23.56H420.75v23.56h60.13v16.41h-60.13a14.7 14.7 0 0 0-14.73 14.73v16.2h-34.8c-8.16 0-14.76 6.6-14.76 14.76v68.25h-12.62v-68.25h-29.49v166h29.49v-68.26h12.62v68.26c0 8.15 6.6 14.73 14.76 14.73h43.4l38.94 52.32c2.79 3.73 7.16 5.93 11.83 5.93h189.56c6.63 0 12.41-4.41 14.2-10.74l13.32-47.37h14.18l14.85 47.78c1.9 6.16 7.63 10.38 14.11 10.38l33.45-.05a14.8 14.8 0 0 0 14.53-12.12c5.96-33.31 9.12-72.34 9.12-112.92 0-42.49-3.4-82.81-9.83-116.58m-26.82 212.13l-9.62.02-14.82-47.74c-1.94-6.16-7.66-10.39-14.09-10.39h-36.21a14.8 14.8 0 0 0-14.23 10.77l-13.29 47.31H472.78l-38.91-52.24c-2.79-3.75-7.22-5.95-11.89-5.95h-36.03V275.2h34.8c8.13 0 14.76-6.61 14.76-14.73v-16.2h168.76v16.2c0 8.12 6.6 14.73 14.76 14.73h24.68l13.12 47.42a14.7 14.7 0 0 0 14.17 10.8h35.95a14.7 14.7 0 0 0 14.02-10.25l15.35-47.91 9.19.02c4.78 29.58 7.71 63.07 7.71 99.13 0 34.24-2.73 66.58-7.16 95.55" fill="#f90" class="C F"/><path d="M1219.5 267.71h740v334.88h-524.17l-133.61 65.12v-65.12h-82.22V267.71" class="E G H"/><g stroke-width="5" class="I B"><path d="M1261.5 358.22c0-10.25 11.64-20.51 18.46-20.51h601c6.82 0 20.52 12.31 18.46 20.51l-59.48 172.3a12.3 12.3 0 0 1-12.31 12.31h-496.39a12.3 12.3 0 0 1-12.31-12.31z"/><rect height="28.72" rx="2" width="45.13" x="1372.26" y="362.32"/><rect height="28.72" rx="2" width="45.13" x="1425.59" y="362.32"/><rect height="28.72" rx="2" width="45.13" x="1478.92" y="362.32"/><rect height="28.72" rx="2" width="45.13" x="1532.25" y="362.32"/><rect height="28.72" rx="2" width="45.13" x="1585.59" y="362.32"/><rect height="28.72" rx="2" width="45.13" x="1638.92" y="362.32"/><rect height="28.72" rx="2" width="45.13" x="1692.25" y="362.32"/><rect height="28.72" rx="2" width="45.13" x="1745.58" y="362.32"/><rect height="28.72" rx="2" width="45.13" x="1372.26" y="488.68"/><rect height="28.72" rx="2" width="45.13" x="1425.59" y="488.68"/><rect height="28.72" rx="2" width="45.13" x="1478.92" y="488.68"/><rect height="28.72" rx="2" width="45.13" x="1532.25" y="488.68"/><rect height="28.72" rx="2" width="45.13" x="1585.59" y="488.68"/><rect height="28.72" rx="2" width="45.13" x="1638.92" y="488.68"/><rect height="28.72" rx="2" width="45.13" x="1692.25" y="488.68"/><rect height="28.72" rx="2" width="45.13" x="1745.58" y="488.68"/><rect height="32.82" rx="2" width="410.24" x="1376.37" y="423.86"/><rect height="28.72" rx="2" width="98.46" x="1532.26" y="542.83"/></g><g transform="translate(866.35 279.5)"><g class="I"><path d="M26.59 149.3h16.96v7.71H26.59zM2.7 116.92h64.75v15.42H2.7z" class="E"/><path d="M10.79 131.57v-13.88m47.79 13.88v-13.88" class="D"/><g class="E"><path d="M13.49 143.13h43.17v7.71H13.49z"/><path d="M0 132.34h70.15v11.56H0z"/></g></g><path d="M33.15 208.13v1.99 1h0c1 15.22 8.24 28.94 19.46 38.17C62.34 262.02 77.81 270 94.78 270c23.2 0 43.16-14.97 50.39-35.68a53.4 53.4 0 0 0 9.98-31.18c0-1 0-2.25-.25-3.24h0V152h-4.99v28.94c-8.23-18.22-26.69-30.94-48.15-30.94-8.23 0-15.97 2-22.95 5.24-17.96 2.74-33.18 14.22-40.67 30.19v-28.44h-4.99v49.14 2zm47.16-48.15c1.99-.25 4.24-.5 6.48-.5 8.24 0 15.72 2 22.46 5.49a52.9 52.9 0 0 0-14.22-2 53.2 53.2 0 0 0-30.94 9.98c4.49-5.24 9.98-9.73 16.22-12.97zm14.72 8.23c11.47 0 22.2 3.99 30.43 10.73 6.24 8.23 9.73 18.21 9.73 29.19 0 18.96-10.98 35.43-26.94 43.41-2 .25-4.24.5-6.49.5-26.69 0-48.65-21.71-48.65-48.65 0-5.49 1-10.48 2.5-15.47 8.98-11.97 23.2-19.71 39.42-19.71zm45.9 63.87c-4.49 6.24-10.48 11.23-17.46 14.72 10.22-9.73 16.71-23.45 16.71-38.67a49.7 49.7 0 0 0-1.5-12.23 47.6 47.6 0 0 1 4.74 20.71c0 5.49-.74 10.73-2.49 15.47zm-47.9 24.2c-2 .25-4.24.5-6.24.5-11.47 0-22.2-3.99-30.43-10.73-6.24-8.23-9.73-18.21-9.73-29.19a47.4 47.4 0 0 1 1.99-13.47v.25c-.25 26.44 18.96 48.4 44.41 52.64zm2 8.98c-8.24 0-15.72-2-22.46-5.49a52.8 52.8 0 0 0 14.22 2c8.24 0 15.97-2 22.95-5.24a53.2 53.2 0 0 0 22.96-9.23c-8.98 10.97-22.46 17.96-37.67 17.96zm55.38-61.62c0 4.74-.75 9.23-2 13.47v-.25c0-16.71-7.73-31.43-19.46-41.41-7.98-10.48-19.95-17.72-33.43-19.96 2-.25 4.25-.5 6.24-.5 26.95 0 48.65 21.7 48.65 48.65zm-85.32-38.92c-5.99 5.74-10.73 12.97-13.47 20.96a53.4 53.4 0 0 0-9.98 31.18 50.2 50.2 0 0 0 1.49 12.23c-2.74-5.74-4.24-11.98-4.49-18.72v-4.24c.25-18.21 10.98-33.68 26.45-41.41z" fill="#3d85c6" class="C F"/><g class="E I"><rect height="10" rx="2" width="50" x="126.88" y="146"/><rect height="126.32" rx="2" width="110.53" x="96.62"/><rect height="23.68" rx="2" width="94.74" x="104.51" y="126.32"/><rect height="74.47" rx="2" width="94.74" x="104.51" y="20.53"/></g><g class="G"><circle cx="115.65" cy="30.5" r="5.5" class="J"/><circle cx="115.65" cy="30.5" r="5.5" class="D"/></g><g fill="#f90" class="C"><circle cx="115.64" cy="33.83" r="1.14"/><rect height="5.5" rx="10" width="1.83" x="114.73" y="26.37"/></g><g class="G"><circle cx="115.65" cy="44.5" r="5.5" class="J"/><circle cx="115.65" cy="44.5" r="5.5" class="D"/></g><g fill="#f90" class="C"><circle cx="115.64" cy="47.83" r="1.14"/><rect height="5.5" rx="10" width="1.83" x="114.73" y="40.37"/></g><g class="K"><circle cx="115.65" cy="58.5" r="5.5" class="D"/><circle cx="115.65" cy="58.5" r="5.5" class="H"/></g><use xlink:href="#E" class="C F L"/><g class="K"><circle cx="115.65" cy="72.51" r="5.5" class="D"/><circle cx="115.65" cy="72.51" r="5.5" class="H"/></g><use xlink:href="#E" y="14.01" class="C F L"/><g class="K"><circle cx="115.65" cy="86.51" r="5.5" class="D"/><circle cx="115.65" cy="86.51" r="5.5" class="H"/></g><use xlink:href="#E" y="28.01" class="C F L"/><g class="I"><circle cx="112.15" cy="108" r="5"/><circle cx="127.15" cy="108" r="5"/><circle cx="141.15" cy="108" r="5"/><rect height="10" rx="2" width="45" x="153.15" y="103"/></g><path d="M128.15 28h60m-60 4h40m-40 10.25h60m-60 4h13m-13 10.25h60m-60 4h40m-40 10.25h45m-45 4h40m-40 10.25h60m-60 4h56.5" stroke="#646464" class="D E"/><g transform="translate(103.15 300)" class="I"><path d="M0 13.5v43" stroke-width="5" class="D"/><g stroke-width="1.67" fill="#3d85c6"><use transform="matrix(3 0 0 3 0 0)" xlink:href="#B"/><use transform="matrix(-3 0 0 -3 0 139.98)" xlink:href="#B" y="23.33"/></g></g></g><path fill="url(#A)" d="M159.5 1119.5h2020v320h-2020z" class="C"/><g stroke-width="6" class="G"><circle cx="379.5" cy="919.5" r="100" class="J"/><circle cx="379.5" cy="919.5" r="100" class="D"/></g><g fill="#f90" class="C"><circle cx="379.5" cy="980.33" r="20.83"/><rect height="100" rx="10" width="33.33" x="362.83" y="844.5"/></g><g stroke-width="6" class="G"><circle cx="1799.5" cy="1179.5" r="100" class="J"/><circle cx="1799.5" cy="1179.5" r="100" class="D"/></g><g fill="#f90" class="C"><circle cx="1799.5" cy="1240.33" r="20.83"/><rect height="100" rx="10" width="33.33" x="1782.83" y="1104.5"/></g></svg>