<svg xmlns="http://www.w3.org/2000/svg" width="800" height="600" stroke="#000" stroke-linecap="round" stroke-linejoin="round" fill="#fff" fill-rule="evenodd"><style><![CDATA[.B{stroke-width:5}.C{fill:none}.D{stroke:none}.E{stroke:#3d85c6}.F{fill:#3d85c6}.G{stroke-width:2}.H{stroke-width:3}.I{fill-rule:nonzero}]]></style><defs><path d="M0 0l4 5h-8z" id="A" class="D"/><path id="B" d="M166.08 429.54h477.01 0v69.68h0-521.05 0v-25.65c.01-24.32 19.72-44.03 44.04-44.03z"/><path id="C" d="M523.71 485.83v.12c-.4 27.2 21.33 49.57 48.53 49.96 27.19.39 49.56-21.33 49.96-48.53v-.13z"/></defs><ellipse cx="366.03" cy="535.18" fill="#e0e0e0" rx="279.89" ry="2.5" stroke-opacity=".02"/><g stroke="#4f4f4f" stroke-linejoin="miter" class="I"><path d="M482.78 379.18c-.09.01-.18.01-.27 0h-.78l-3-.09-11.11-.44-16.47-.71-9.72-.43c-1.69-.13-3.4 0-5.15 0h-5.3c-14.34 0-27.31-.64-36.69-1.05l-11.1-.53-3-.17-.79-.06c-.09.02-.18.02-.27 0h1.06l3 .07 11.11.37c9.39.32 22.36.85 36.68.9h5.3c1.75 0 3.47-.09 5.16 0l9.72.46 16.47.82 11.11.6 3 .19.79.06z"/><use href="#B"/><use href="#B" opacity=".4"/><path d="M77.51 496.82s18.48 20.24 52.47 16.12c0 0-13.6-75.44 57.64-79.59 0 0 32.64-2.84 49.46 23.99a51.6 51.6 0 0 1 7.64 26.13c.28 10.6.61 28.49-.24 32.99 0 0 235.39-9.79 276.59-5.1 0 0-18.75-58.36 32.92-77.09 8.82-3.19 18.99-3.54 28.28-2.24 12.66 1.78 26.24 7.58 34.98 21 3.77 5.76 8.43 14.13 9.75 20.89 2.25 11.58.72 22.5 0 28.18l19.48-1.89 14.06-46.57-2-27.74-14.47-27.35-34.28 4.08s-63.44-18-100.76-25.5c-37.33-7.51-96.28-9-110.56-6.53-14.27 2.47-19.71 5.11-26.79 8.17-7.07 3.05-72.34 34.26-72.34 34.26l-99.74.81s-68.13-1.42-111.16 49.77l5.7 23.05z"/><path d="M299.36 413.04l77.64 1.99c16.17-.62 103.68-10.88 103.68-10.88l1.26-25.13s-29.03-1.9-48.08-1.9c-15.86 0-54.79-1.48-54.79-1.48l-3.87 1.6c-22.61 9.65-48.02 22.36-75.84 35.8zm-196.37 35.89s9.11 1.46 20.49-3.65c11.39-5.11 43.78-22.57 43.78-22.57l-2.13-4.44s-5.81 1.17-12.5 3.29c-7.24 2.34-14.28 5.24-21.07 8.67-5.33 2.67-10.51 5.63-15.52 8.86-4.53 3.03-8.89 6.31-13.05 9.84zm17.59 14.53c0 .14-6.34.44-14.18.67-7.83.23-14.19.3-14.2.15s6.35-.44 14.18-.67c7.84-.23 14.2-.29 14.2-.15z"/><path d="M94.16 486.66l22.32 10.41s-21.89 4.33-38.98-.22z" opacity=".4"/><path d="M132.55 458.08s-7.18 10.52-8.21 18.89c-1.03 8.38-1.19 18.88-1.19 18.88h3.25s-2.7-25.55 10.76-37.77z"/><path d="M246.18 438.36l-7.8-7.41 66.09-2.34-45.82 5.85-12.47 3.9z" opacity=".3"/><path d="M251.24 497.5a1.4 1.4 0 0 1 0-.29c0-.23 0-.51-.05-.86a52.2 52.2 0 0 0-.16-3.28c-.21-4.02-.62-8.02-1.24-12-.91-5.91-2.54-11.68-4.86-17.19-2.86-6.73-7.01-12.84-12.21-17.99a58.5 58.5 0 0 0-17.99-12.15l-1.14-.51-1.16-.43-2.27-.86c-1.53-.45-3-1-4.44-1.33s-2.85-.73-4.23-.95l-2-.38-1.94-.26a65.8 65.8 0 0 0-11.99-.41c-1.43.06-2.52.22-3.27.27l-.86.07h-.29c.09-.03.19-.05.29-.06l.84-.12c.75-.08 1.85-.28 3.27-.37 4.03-.31 8.09-.22 12.1.26l2 .24 2 .36c1.38.22 2.79.57 4.26.93s2.94.87 4.48 1.32l2.29.85 1.17.43 1.15.51c6.78 2.89 12.96 7.04 18.21 12.22 5.24 5.19 9.42 11.35 12.28 18.15 2.3 5.55 3.89 11.36 4.73 17.3a102.1 102.1 0 0 1 .99 12.1c.07 1.43 0 2.54.06 3.29v.86a.9.9 0 0 1-.02.28z"/><path d="M262.35 493.93l39.53-16.9 193.95 3.73-233.48 13.17z" opacity=".4"/><path d="M299.51 478.04l-54.62-40.9 13.75-2.69 56.45 42.82-15.58.77zm17.39 35.69c-.05-.12-.09-.25-.11-.38l-.29-1.13-1-4.35-3.62-15.69v-.05-.06l4.58-15.11v.12l-2.06-14.7c-1-7.23-1.9-14.1-2.45-20.41l-.09-1.18a8 8 0 0 1 0-1.2 13.4 13.4 0 0 1 .49-2.26c.44-1.39.98-2.75 1.62-4.07 1.15-2.34 2.43-4.62 3.82-6.83 2.55-4.06 4.83-7.18 6.43-9.33.8-1.07 1.44-1.89 1.88-2.43.2-.26.37-.46.5-.62s.18-.21.19-.2c-.04.08-.09.16-.14.23l-.47.65-1.8 2.49c-1.55 2.18-3.78 5.34-6.27 9.4-1.37 2.21-2.62 4.48-3.75 6.82a31.9 31.9 0 0 0-1.57 4 10.1 10.1 0 0 0-.41 4.47c.57 6.28 1.52 13.15 2.48 20.38l2 14.7v.09h0l-4.65 15.1v-.11l3.44 15.73.92 4.37.23 1.15c.05.13.09.27.1.41z"/><path d="M318.37 413.79l76.35-37.34 19.79.68s-49.33 11.76-58.62 37.81zm224.12-22.75l-7.52 8.38-54.29 4.76 1.26-25.13s52.15 7.86 60.55 11.99zM318.31 502.07l.66-.06 1.95-.12 7.5-.4 27.58-1.36 90.96-4.32 13.14-.63a29.9 29.9 0 0 0 12.06-3.6c7.34-4 12.99-10.05 17.61-16.16 4.41-5.8 8.08-12.12 10.92-18.83 2.47-5.85 3.99-12.05 4.5-18.38.19-2.76.15-5.52-.11-8.27-.26-2.45-.7-4.88-1.3-7.27a43 43 0 0 0-4.54-10.89c-1.29-2.14-2.79-4.15-4.46-6-.58-.63-1.05-1.08-1.36-1.4l-.45-.49a9.3 9.3 0 0 0 .49.45c.32.31.8.75 1.4 1.36 1.71 1.84 3.23 3.85 4.55 6 2.04 3.41 3.61 7.08 4.65 10.92a53.4 53.4 0 0 1 1.35 7.31 50.5 50.5 0 0 1 .15 8.34 59.7 59.7 0 0 1-4.47 18.51c-2.83 6.76-6.5 13.15-10.93 18.99-4.6 6.1-10.32 12.17-17.72 16.3-3.78 2.09-7.96 3.34-12.27 3.68l-13.17.63-90.97 4.16-27.57 1.21-7.51.3-1.95.06zm221.13-79.9a14.6 14.6 0 0 0-.53-2.68c-.83-2.35-2.48-4.32-4.65-5.55a13.5 13.5 0 0 0-10.57-1.27c-2.08.59-3.96 1.73-5.44 3.3-3.39 3.45-3.39 8.97 0 12.42 1.48 1.57 3.36 2.71 5.44 3.29 3.55 1.05 7.37.59 10.57-1.27a10.3 10.3 0 0 0 4.65-5.56 14.3 14.3 0 0 0 .53-2.68c.02.24.02.48 0 .72a4.1 4.1 0 0 1-.09.86 5 5 0 0 1-.26 1.16 10.4 10.4 0 0 1-4.65 5.82c-3.28 1.95-7.22 2.46-10.89 1.41a12.4 12.4 0 0 1-5.69-3.41c-3.57-3.64-3.57-9.47 0-13.11 1.55-1.63 3.52-2.81 5.69-3.41 3.67-1.06 7.61-.54 10.89 1.42a10.3 10.3 0 0 1 4.65 5.8c.13.38.22.77.26 1.16a4.3 4.3 0 0 1 .09.87 4.2 4.2 0 0 1 0 .71zm71.35-19.66h-.26-.78l-3 .06-10.99.21-36.32 1-36.29 1.86-10.99.93-3 .28-.78.06c-.09.01-.18.01-.27 0 .09-.01.17-.01.26 0l.77-.11 3-.38c2.58-.34 6.33-.68 10.99-1.1a766.4 766.4 0 0 1 36.3-2l36.33-.82h10.99 3 .78c.09-.01.17 0 .26.01zm4.67-.55l32.89 4.65-4.27-8.06-28.62 3.41z"/><path d="M641.05 405.11a2.3 2.3 0 0 1-.18.5l-.6 1.39-2.4 5c-2.74 5.49-5.78 10.82-9.09 15.99a173.9 173.9 0 0 1-10.75 14.94c-1.48 1.84-2.7 3.3-3.58 4.28l-1 1.13a1.9 1.9 0 0 1-.38.37c-.14.11.09-.16.3-.44l.93-1.19c.83-1 2-2.52 3.45-4.37a213.7 213.7 0 0 0 10.6-15 218.5 218.5 0 0 0 9.21-15.89c1.09-2.08 2-3.78 2.53-5l.69-1.35c.08-.13.17-.25.27-.36z"/><path d="M634.56 494.43c-.02-.11-.02-.21 0-.32v-1-3.62c-.22-4.44-.89-8.84-2-13.14-1.67-6.37-4-12.55-6.95-18.44a90.2 90.2 0 0 0-5.68-10.16c-2.23-3.51-5.04-6.63-8.29-9.22-3.35-2.49-7.06-4.44-11-5.79a76.5 76.5 0 0 0-11.23-3 80.6 80.6 0 0 0-19.61-1.21 82.3 82.3 0 0 0-13.17 1.82l-2 .47-1.48.38-.92.23c-.1.04-.2.06-.31.06.1-.04.2-.08.3-.11l.9-.28 1.47-.43 2-.52c4.33-1.04 8.75-1.71 13.2-1.99a79.3 79.3 0 0 1 19.76 1.15 76.4 76.4 0 0 1 11.32 3 40.5 40.5 0 0 1 11.13 5.86 38.2 38.2 0 0 1 8.4 9.35 92.7 92.7 0 0 1 5.69 10.22 93.7 93.7 0 0 1 6.87 18.57c1.06 4.33 1.66 8.76 1.8 13.22 0 1.58 0 2.81-.07 3.64 0 .39 0 .7-.06.94-.01.11-.04.22-.07.32zm26.07-45.88a8 8 0 0 1-1.33.45l-3.67 1c-8.14 1.98-16.48 3.03-24.85 3.15h-3.81a9.2 9.2 0 0 1-1.39-.11c.46-.08.92-.11 1.39-.09l3.8-.13c3.2-.12 7.61-.41 12.46-1s9.2-1.45 12.33-2.12l3.7-.83a7.8 7.8 0 0 1 1.37-.32zm-376.96 1.16s.22 0 .64-.08l1.87-.17 7.21-.59 26.52-2.08 87.47-6.12 48.21-2.62c14.83-.69 28.21-1 39.43-.28a161.3 161.3 0 0 1 26.33 3.53 128.4 128.4 0 0 1 6.99 1.84l1.8.54.61.2s-.22 0-.63-.15l-1.81-.48c-1.59-.47-4-1-6.99-1.75-8.68-1.84-17.49-2.98-26.34-3.41-11.2-.64-24.57-.34-39.39.4l-48.2 2.66-87.47 6-26.52 1.94-7.21.5-1.87.12zm240.04 37.64c-.39-27.29 21.26-49.56 48.54-49.94 27.29-.39 49.56 21.26 49.95 48.54.38 27.29-21.27 49.56-48.55 49.95-27.29.38-49.56-21.27-49.94-48.55z"/><use href="#C"/><path d="M538.36 486.17a34.6 34.6 0 0 0 34.08 35.06 34.6 34.6 0 0 0 35.07-34.08 34.6 34.6 0 0 0-34.07-35.07c-9.17-.13-18.02 3.38-24.6 9.78a34.6 34.6 0 0 0-10.48 24.31z"/><path d="M573.45 452.08a34.6 34.6 0 0 0-35.08 34.08l69.15 1c.14-9.17-3.38-18.02-9.77-24.6-6.39-6.57-15.13-10.34-24.3-10.48z"/><path d="M551.88 486.36c-.12 8.52 4.9 16.28 12.72 19.65 7.82 3.38 16.91 1.7 23.02-4.23 6.11-5.94 8.04-14.97 4.89-22.89-3.14-7.91-10.75-13.16-19.27-13.28a21.1 21.1 0 0 0-21.36 20.75zm-413.34.63c-.18-27.29 21.64-49.4 48.92-49.58 27.29-.18 49.4 21.64 49.58 48.92.18 27.29-21.64 49.4-48.92 49.58-27.29.18-49.4-21.64-49.58-48.92z"/><use href="#C" x="-385.18"/><path d="M153.19 486.17a34.6 34.6 0 0 0 34.08 35.06 34.6 34.6 0 0 0 35.07-34.08 34.6 34.6 0 0 0-58.67-25.29 34.6 34.6 0 0 0-10.48 24.31z"/><path d="M188.27 452.08a34.6 34.6 0 0 0-24.6 9.78c-6.58 6.39-10.35 15.13-10.48 24.3l69.15 1c.14-9.17-3.38-18.02-9.77-24.6s-15.13-10.35-24.3-10.48z"/><path d="M166.7 486.36c-.17 11.63 9.12 21.2 20.75 21.37s21.2-9.12 21.37-20.75-9.12-21.2-20.75-21.37a21.1 21.1 0 0 0-14.98 5.95c-4.01 3.89-6.31 9.22-6.39 14.8zm344.88-84.9a12.5 12.5 0 0 0-2.12.09l-6.11.53-22.43 2.28-33.25 3.6-19.62 2.24-10.37 1.27c-3.49.48-7.06 1-10.67 1.32-7.24.75-14.32 1.3-21.14 1.79l-10.07.66-2.46.14h-7.22c-12.59 0-23.93-.25-33.44-.65l-22.52-1.24-6.12-.44-1.59-.13-.54-.06h.55l1.59.08 6.12.34 22.52 1.07a928.3 928.3 0 0 0 33.43.54h7.2l2.45-.14 10.11-.65c6.82-.49 13.9-1.05 21.12-1.8 3.62-.36 7.16-.83 10.66-1.32 3.51-.49 7-.86 10.38-1.26l19.63-2.2 33.26-3.5 22.45-2.11c5.31-.44 8.22-.62 8.2-.45z"/><path d="M353.13 420.5s8.19-15.83 13.99-18.56c0 0 15.47-1.64 17.83-1.09s3.1 4.19 3.1 6.55.36 6.56-1.46 8-.36 1.28-3.82 2.19-10.89-.49-10.89-.49l.18 6.72s-8.18 4.19-13.46 2.92a6.9 6.9 0 0 1-5.47-6.24z"/><path d="M372.13 423.79c-.04-.15-.06-.3-.06-.45 0-.34 0-.78-.07-1.32l-.2-5v-.18h.18a51.6 51.6 0 0 0 6.18.74 19.8 19.8 0 0 0 3.69-.08 11.6 11.6 0 0 0 1.92-.44c.63-.22 1.36-.32 1.71-.84.23-.29.49-.55.77-.8a3.6 3.6 0 0 0 .73-.73 4.9 4.9 0 0 0 .75-1.99 25.4 25.4 0 0 0 .18-4.61c.07-1.61-.17-3.21-.7-4.73-.26-.76-.73-1.43-1.35-1.93-.7-.41-1.51-.59-2.31-.5-2.9 0-5.75.25-8.48.46l-7.82.71h.07c-1.43.8-2.7 1.85-3.77 3.09-1.02 1.11-1.97 2.27-2.85 3.49l-4.13 6.14-2.47 4.14-.64 1.11c-.07.13-.15.26-.24.37.04-.14.1-.28.17-.41l.58-1.14 2.35-4.22c1.05-1.78 2.38-3.91 4.06-6.23.88-1.24 1.83-2.42 2.85-3.55 1.09-1.3 2.41-2.39 3.89-3.22h.08l7.82-.75 8.54-.47a9.9 9.9 0 0 1 1.33.08c.46.06.9.24 1.28.52.7.56 1.23 1.31 1.52 2.16a13.2 13.2 0 0 1 .72 4.91c.08 1.57.01 3.15-.21 4.71-.12.77-.41 1.51-.84 2.16-.23.31-.51.58-.81.8a6.2 6.2 0 0 0-.71.74c-2.55 1.73-5.36 1.56-7.7 1.45-2.08-.14-4.16-.42-6.21-.83l.17-.15.07 5v1.31c.01.16-.01.32-.04.48zm-105.2 18.97c-1.99.27-4 .36-6 .27a33.4 33.4 0 0 1-6-.27c1.99-.26 3.99-.34 6-.26a35.4 35.4 0 0 1 6 .26zm8.6 6.33c-1.99.27-4 .35-6 .26-2.01.09-4.01 0-6-.26 1.99-.26 3.99-.34 6-.26 2-.08 4.01 0 6 .26zm8.54 6.22a34.4 34.4 0 0 1-6 .26c-2.01.09-4.01 0-6-.26 1.99-.26 3.99-.34 6-.26a35.4 35.4 0 0 1 6 .26zm8.55 6.28a34.4 34.4 0 0 1-6 .26c-2.01.09-4.01 0-6-.26 1.99-.26 3.99-.35 6-.26 2-.09 4.01 0 6 .26zm8.55 6.28a34.4 34.4 0 0 1-6 .26c-2.01.09-4.01 0-6-.26a33.4 33.4 0 0 1 6-.27c2-.09 4.01 0 6 .27zm8.55 6.27c-1.99.27-4 .35-6 .26a33.4 33.4 0 0 1-6-.26c1.99-.26 3.99-.34 6-.26a35.4 35.4 0 0 1 6 .26zm73.15-71.1c-2.44.26-4.9.35-7.36.26a52 52 0 0 1-7.38-.26 52 52 0 0 1 7.38-.26c2.46-.09 4.92 0 7.36.26zm-174.79 25.5c-.5-.05-1.01-.15-1.49-.29l-4.07-.82-6.1-.79a67.7 67.7 0 0 0-14.99.4 68.5 68.5 0 0 0-6.05 1.11l-4 1a9.4 9.4 0 0 1-1.48.37 7.9 7.9 0 0 1 1.42-.56c.92-.34 2.29-.76 4-1.21a62.1 62.1 0 0 1 6.07-1.23 61.3 61.3 0 0 1 15.13-.4 62.1 62.1 0 0 1 6.13.91 43.4 43.4 0 0 1 4.05 1c.47.13.94.3 1.38.51zm287.76 52.22c0 .14-52.16 3.13-116.51 6.69l-116.54 6.18c-.01-.15 52.15-3.14 116.51-6.7l116.54-6.17zm100.29-52.66a9.8 9.8 0 0 1-1.67-.44l-1.94-.54-2.58-.64-6.83-1.23-8.47-.57a77.4 77.4 0 0 0-8.47.46l-6.84 1.14-2.59.61-1.95.52c-.55.18-1.11.32-1.68.42a10.2 10.2 0 0 1 1.62-.61l1.93-.61 2.59-.69c2.26-.55 4.55-.96 6.86-1.25a69.8 69.8 0 0 1 8.54-.52c2.85.04 5.7.25 8.53.63l6.85 1.34c.99.22 1.81.5 2.57.72l1.92.63a11.7 11.7 0 0 1 1.61.63zm-72.49-16.92c0 .08-.74.19-1.88.56-2.99.98-5.53 2.99-7.17 5.66-.3.59-.64 1.16-1 1.7.09-.66.32-1.3.67-1.88 1.53-2.89 4.21-5.01 7.39-5.83a4.8 4.8 0 0 1 1.99-.21zm40.82-9.54a17.5 17.5 0 0 1-3.06.55 90.5 90.5 0 0 1-7.48.64h-7.51a16.1 16.1 0 0 1-3.1-.28c1.03-.11 2.07-.14 3.11-.09l7.48-.17 7.46-.49c1.03-.14 2.07-.19 3.1-.16zm-109.71 8.76c0 .14-9.81 1.68-21.99 3.44l-22.06 2.93c-.07-.14 9.83-1.69 21.99-3.44l22.06-2.93zm-10.03-21.82c.06.13-4.63 2.29-10.46 4.81-5.84 2.53-10.62 4.47-10.68 4.34s4.63-2.29 10.47-4.82c5.83-2.52 10.61-4.46 10.67-4.33zm-5.57-2.76a7.9 7.9 0 0 1-1.34.8l-3.76 2c-3.19 1.62-7.66 3.77-12.67 6s-9.6 3.99-12.99 5.26c-1.68.63-3.05 1.11-4 1.43a9.5 9.5 0 0 1-1.49.45c.45-.26.93-.47 1.42-.64l3.93-1.58a410.1 410.1 0 0 0 12.89-5.4c5-2.2 9.49-4.28 12.72-5.82l3.83-1.82c.46-.27.95-.49 1.46-.68zm176.54 87.59a65.2 65.2 0 0 0-2.72-6.23 67 67 0 0 0-3.8-5.64c.57.38 1.06.85 1.47 1.39a23.6 23.6 0 0 1 2.78 4c.79 1.42 1.42 2.93 1.88 4.5.24.63.37 1.3.39 1.98zm-.55 10.87c-.16-.85-.26-1.72-.32-2.59a32.6 32.6 0 0 0-1.37-6.08c-.68-1.97-1.54-3.88-2.58-5.68l-1.32-2.25c.64.6 1.19 1.3 1.63 2.06 1.16 1.78 2.09 3.69 2.76 5.71.68 2 1.1 4.09 1.25 6.2.11.88.09 1.76-.05 2.63zm-75.46 22.38a8 8 0 0 1-1.57-1.91 28.2 28.2 0 0 1-4.51-10.99c-.19-.81-.27-1.64-.23-2.47.61 2.72 1.41 5.39 2.38 8a60.5 60.5 0 0 0 3.93 7.37zm1.53 8.19s-.26-.17-.67-.55l-1.64-1.67c-1.74-1.92-3.28-4-4.6-6.22a39.6 39.6 0 0 1-3.31-7l-.69-2.24c-.1-.27-.16-.56-.16-.85.08 0 .46 1.14 1.2 3a50.4 50.4 0 0 0 3.4 6.87c1.32 2.19 2.8 4.28 4.44 6.25l2.03 2.41zm-383.17-2.47c-.6-.44-1.13-.94-1.59-1.51-1.19-1.3-2.29-2.66-3.3-4.09-1.03-1.43-1.96-2.92-2.79-4.47-.39-.62-.7-1.29-.9-2 .14-.08 1.74 2.83 4.11 6.15l4.47 5.92zm1.41 5.68c-1.71-1.14-3.26-2.48-4.63-4-1.49-1.41-2.8-3.01-3.9-4.75.12-.09 1.92 2 4.27 4.38l4.26 4.37zm68.49-37.41c-.15 0-.51-2.58-1.64-5.59s-2.55-5.21-2.41-5.3c2.45 3.11 3.85 6.93 4 10.89zm2.51.94a47.5 47.5 0 0 0-2-7.3c-1.04-2.32-2.25-4.55-3.63-6.67.58.49 1.08 1.06 1.48 1.7a23.3 23.3 0 0 1 2.64 4.76c.68 1.69 1.16 3.45 1.43 5.26a7.1 7.1 0 0 1 .08 2.25z"/></g><g class="E"><g class="G"><path d="M247.5 249.5h68v41.16h-68z"/><path d="M255.27 290.66h23.26v3.58h-23.26zm29.2 0h23.26v3.58h-23.26z"/></g><circle cx="281.33" cy="259.04" r="2.78"/><circle cx="286.8" cy="265.99" r="4.17"/><circle cx="275.95" cy="272.4" r="6.31"/></g><g transform="translate(266.5 315.5)"><path d="M0 5.63v23.75" class="C E G"/><g class="F"><use y="28" href="#A" transform="matrix(-1.25 0 0 -1.25 0 70)"/><use href="#A" transform="matrix(1.25 0 0 1.25 0 0)"/></g></g><path d="M210.74 243.94H57.5v138.52h153.24v-16.44l16.76-42.13-16.76-.2v-79.75" stroke="#f90" class="G"/><g transform="matrix(0 -1 1 0 97.34 370.42)"><path d="M114.59 0H6.75" class="C E H"/><use href="#A" transform="matrix(0 -1.5 1.5 0 0 0)" class="F"/></g><circle cx="38.54" cy="38.54" transform="matrix(0 -1 1 0 57.75 347.49)" r="38.54" class="D"/><g transform="matrix(0 1 -1 0 168.78 252.21)"><path d="M114.59 0H6.75" class="C E H"/><use href="#A" transform="matrix(0 -1.5 1.5 0 0 0)" class="F"/></g><circle cx="38.54" cy="38.54" transform="matrix(0 1 -1 0 208.36 275.13)" r="38.54" class="D"/><path d="M187.97 296.05c-1.89-1.48-4.61-1.15-6.1.71l-15.51 19.65-8.81-9.16a4.3 4.3 0 0 0-6.13-.12c-1.73 1.65-1.8 4.41-.12 6.14l10.53 10.98a6.3 6.3 0 0 0 4.7 2.17h.07c1.89-.03 3.66-.9 4.86-2.43l17.24-21.82a4.4 4.4 0 0 0-.73-6.12z" fill="#11d0ae" class="D I"/><circle cx="169.57" cy="310.05" stroke="#11d0ae" r="28.33" class="C H"/><g stroke="#f90" stroke-width="4"><circle cx="96.18" cy="309.79" fill-opacity=".7" r="27.63"/><circle cx="96.18" cy="309.79" r="27.63" class="C"/></g><g fill="#f90" class="D"><circle cx="96.18" cy="326.59" r="5.76"/><rect x="91.57" y="289.07" width="9.21" height="27.63" rx="10"/></g><g transform="translate(357.5 59.5)"><g transform="translate(3.46)"><path d="M0 244.86V9" stroke="#434343" class="B C"/><use fill="#434343" transform="matrix(2 0 0 2 0 0)" href="#A"/></g><g transform="translate(3.46 244.86)"><path d="M0 0h408.7" stroke="#434343" class="B C"/><use fill="#434343" transform="matrix(0 2 -2 0 417.7 -417.7)" x="208.85" href="#A"/></g><g class="B E F"><circle cx="3.43" cy="3.43" r="3.43" transform="matrix(-1 0 0 -1 6.86 129.49)"/><circle cx="3.43" cy="3.43" r="3.43" transform="matrix(-1 0 0 -1 25.72 123.1)"/><circle cx="3.43" cy="3.43" r="3.43" transform="matrix(-1 0 0 -1 44.59 127.65)"/><circle cx="3.43" cy="3.43" r="3.43" transform="matrix(-1 0 0 -1 63.45 123.1)"/><circle cx="3.43" cy="3.43" r="3.43" transform="matrix(-1 0 0 -1 82.32 134.26)"/><circle cx="3.43" cy="3.43" r="3.43" transform="matrix(-1 0 0 -1 101.18 126.68)"/><circle cx="3.43" cy="3.43" r="3.43" transform="matrix(-1 0 0 -1 120.05 136.12)"/><circle cx="3.43" cy="3.43" r="3.43" transform="matrix(-1 0 0 -1 138.91 132.29)"/><circle cx="3.43" cy="3.43" r="3.43" transform="matrix(-1 0 0 -1 157.77 84.45)"/><circle cx="3.43" cy="3.43" r="3.43" transform="matrix(-1 0 0 -1 176.64 70.78)"/><circle cx="3.43" cy="3.43" r="3.43" transform="matrix(-1 0 0 -1 195.5 68.21)"/><circle cx="3.43" cy="3.43" r="3.43" transform="matrix(-1 0 0 -1 214.37 26.65)"/><circle cx="3.43" cy="3.43" r="3.43" transform="matrix(-1 0 0 -1 233.23 19.42)"/><path d="M6.68 124.95l12.36-4.19m6.6-.29l12.19 2.94m6.67 0l12.19-2.94m6.3.95l12.95 7.66m6.14.47l12.49-5.02m6.25.24l12.72 6.37m6.44.86l12.14-2.46m4.61-3.87l16.35-41.45m4.04-5.21l13.3-9.64m6.18-2.48l12.07-1.64m4.81-3.58l16.03-35.31m4.64-4.36l12.45-4.77"/><circle cx="248.53" cy="22.48" r="3.43"/><circle cx="267.39" cy="17.93" r="3.43"/><circle cx="286.26" cy="22.48" r="3.43"/><circle cx="305.12" cy="11.32" r="3.43"/><circle cx="323.98" cy="18.9" r="3.43"/><circle cx="342.85" cy="9.46" r="3.43"/><circle cx="361.71" cy="13.29" r="3.43"/><circle cx="380.58" cy="75.12" r="3.43"/><circle cx="399.44" cy="105.11" r="3.43"/><circle cx="418.31" cy="121.68" r="3.43"/><path d="M233.04 17.11l12.24 4.24m6.58.32l12.19-2.94m6.68 0l12.19 2.94m6.29-.94l12.95-7.66m6.14-.47l12.49 5.02m6.26-.25L339.77 11m6.44-.86l12.14 2.46m4.36 3.97l16.86 55.27m2.83 6.19l15.21 24.18m4.41 5.17l13.71 12.04"/></g><g stroke="#f90" fill="#f90" class="B"><circle cx="3.43" cy="3.43" r="3.43" transform="matrix(-1 0 0 -1 6.86 194.8)"/><circle cx="3.43" cy="3.43" r="3.43" transform="matrix(-1 0 0 -1 25.72 169.75)"/><circle cx="3.43" cy="3.43" r="3.43" transform="matrix(-1 0 0 -1 44.59 155.64)"/><circle cx="3.43" cy="3.43" r="3.43" transform="matrix(-1 0 0 -1 63.45 179.08)"/><circle cx="3.43" cy="3.43" r="3.43" transform="matrix(-1 0 0 -1 82.32 162.25)"/><circle cx="3.43" cy="3.43" r="3.43" transform="matrix(-1 0 0 -1 101.18 159.33)"/><circle cx="3.43" cy="3.43" r="3.43" transform="matrix(-1 0 0 -1 120.05 159.44)"/><circle cx="3.43" cy="3.43" r="3.43" transform="matrix(-1 0 0 -1 138.91 169.61)"/><circle cx="3.43" cy="3.43" r="3.43" transform="matrix(-1 0 0 -1 157.77 159.09)"/><circle cx="3.43" cy="3.43" r="3.43" transform="matrix(-1 0 0 -1 176.64 159.41)"/><circle cx="3.43" cy="3.43" r="3.43" transform="matrix(-1 0 0 -1 195.5 222.15)"/><circle cx="3.43" cy="3.43" r="3.43" transform="matrix(-1 0 0 -1 214.37 227.23)"/><circle cx="3.43" cy="3.43" r="3.43" transform="matrix(-1 0 0 -1 233.23 164.02)"/><path d="M5.51 188.62l14.73-19.56m4.79-4.8l13.37-10m4.91.63l14.56 18.09m4.71.38l13.74-12.26m5.96-2.82l12.08-1.87m6.82-.48l12 .07m6.46 1.63l12.82 6.91m6.01-.03l12.87-7.18m6.42-1.62l12.01.21m4.42 3.35l16.89 56.16m4.31 4.18l12.24 3.3m4.29-2.41l16.9-56.63"/><circle cx="248.53" cy="143.76" r="3.43"/><circle cx="267.39" cy="148.54" r="3.43"/><circle cx="286.26" cy="171.75" r="3.43"/><circle cx="305.12" cy="160.59" r="3.43"/><circle cx="323.98" cy="182.17" r="3.43"/><circle cx="342.85" cy="191.38" r="3.43"/><circle cx="361.71" cy="185.88" r="3.43"/><circle cx="380.58" cy="191.74" r="3.43"/><circle cx="399.44" cy="184.41" r="3.43"/><circle cx="418.31" cy="186.99" r="3.43"/><path d="M232.35 158.29l13.62-12.24m5.88-1.45l12.21 3.09m5.5 3.51l14.53 17.88m5.12.92l12.95-7.66m5.22.83l14.35 16.41m5.34 4.09l12.7 6.2m6.37.55l12.28-3.58m6.57.06l12.31 3.82m6.48-.22l12.47-4.84m6.59-.78l12.07 1.64"/></g><g stroke="#10cba9" fill="#10cba9" class="B"><circle cx="3.43" cy="3.43" r="3.43" transform="matrix(-1 0 0 -1 6.86 113.16)"/><circle cx="3.43" cy="3.43" r="3.43" transform="matrix(-1 0 0 -1 25.72 137.09)"/><circle cx="3.43" cy="3.43" r="3.43" transform="matrix(-1 0 0 -1 44.59 143.97)"/><circle cx="3.43" cy="3.43" r="3.43" transform="matrix(-1 0 0 -1 63.45 155.75)"/><circle cx="3.43" cy="3.43" r="3.43" transform="matrix(-1 0 0 -1 82.32 117.93)"/><circle cx="3.43" cy="3.43" r="3.43" transform="matrix(-1 0 0 -1 101.18 105.68)"/><circle cx="3.43" cy="3.43" r="3.43" transform="matrix(-1 0 0 -1 120.05 89.47)"/><circle cx="3.43" cy="3.43" r="3.43" transform="matrix(-1 0 0 -1 138.91 150.95)"/><circle cx="3.43" cy="3.43" r="3.43" transform="matrix(-1 0 0 -1 157.77 126.43)"/><circle cx="3.43" cy="3.43" r="3.43" transform="matrix(-1 0 0 -1 176.64 138.42)"/><circle cx="3.43" cy="3.43" r="3.43" transform="matrix(-1 0 0 -1 195.5 138.18)"/><circle cx="3.43" cy="3.43" r="3.43" transform="matrix(-1 0 0 -1 214.37 124.6)"/><circle cx="3.43" cy="3.43" r="3.43" transform="matrix(-1 0 0 -1 233.23 110.38)"/><path d="M5.57 112.43l14.61 18.54m5.34 3.86l12.42 4.53m6.13 3l13.04 8.14m4.44-1.25l15.8-31.68m4.41-4.95l13.11-8.51m5.48-4.09l13.66-11.74m3.62 1.04l16.85 54.92m3.09.56l14.68-19.08m4.98-.89l13.07 8.31m6.33 1.81l12.01-.15m6.23-2.06l13.29-9.57m5.52-4.06l13.38-10.09"/><circle cx="248.53" cy="122.76" r="3.43"/><circle cx="267.39" cy="113.55" r="3.43"/><circle cx="286.26" cy="153.08" r="3.43"/><circle cx="305.12" cy="146.59" r="3.43"/><circle cx="323.98" cy="144.84" r="3.43"/><circle cx="342.85" cy="140.07" r="3.43"/><circle cx="361.71" cy="122.9" r="3.43"/><circle cx="380.58" cy="142.75" r="3.43"/><circle cx="399.44" cy="130.77" r="3.43"/><circle cx="418.31" cy="154.33" r="3.43"/><path d="M232.42 109.16l13.48 11.39m5.71.71l12.7-6.2m4.56 1.59l15.91 33.34m4.72 1.98l12.37-4.26m6.67-1.43l12.03-1.12m6.74-1.16l12.21-3.09m5.87-3.16l13.79-12.54m4.9.18l14.13 14.88m5.26.65l13.07-8.31m5.05.84l14.57 18.2"/></g></g></svg>