<svg xmlns="http://www.w3.org/2000/svg" xmlns:xlink="http://www.w3.org/1999/xlink" width="800" height="600" stroke="#000" stroke-linecap="round" stroke-linejoin="round" fill="#fff" fill-rule="evenodd"><style><![CDATA[.B{stroke-width:.5}.C{stroke:#3d85c6}.D{stroke:#434343}.E{fill:#3d85c6}.F{fill:none}.G{stroke-width:2}.H{fill-rule:nonzero}.I{stroke-linejoin:miter}.J{fill:#434343}]]></style><defs><path d="M0 0l4 5h-8z" stroke="none" id="A"/><path id="B" d="M724.5 134.6c0 .34-.27.61-.61.61-.17 0-.32-.06-.44-.18-.12-.11-.18-.27-.18-.43 0-.34.28-.62.62-.62.16 0 .32.06.43.18.12.12.18.27.18.44z"/><path id="C" d="M707 136.81c0 .16-.06.32-.18.43-.11.12-.27.18-.43.18-.34 0-.62-.27-.62-.61s.28-.62.62-.62c.16 0 .32.06.43.18.12.12.18.27.18.44z"/><path id="D" d="M267.93 442.46a54.8 54.8 0 0 0-54.77 54.77 54.8 54.8 0 0 0 54.77 54.78 54.8 54.8 0 0 0 54.78-54.78 54.8 54.8 0 0 0-54.78-54.77zm0 91.67a36.9 36.9 0 0 1-36.89-36.9 36.9 36.9 0 0 1 36.89-36.89 36.9 36.9 0 0 1 36.9 36.89 36.9 36.9 0 0 1-36.9 36.9z"/><path id="E" d="M267.93 426.57a70.7 70.7 0 0 0-70.66 70.66 70.7 70.7 0 0 0 70.66 70.66 70.7 70.7 0 0 0 70.66-70.66 70.7 70.7 0 0 0-70.66-70.66zm0 118.26a47.6 47.6 0 1 1 0-95.2 47.6 47.6 0 1 1 0 95.2z"/><path id="F" d="M444.71 414.44l15.16.12c1.08.01 1.97-.87 1.98-1.95v-.04c0-1.08-.87-1.97-1.95-1.98l-15.16-.11c-1.09-.01-1.97.86-1.98 1.95v.04c-.01 1.08.86 1.97 1.95 1.97z"/></defs><path d="M739.5 229.5v-145H514.01v94.28l-19.51 34.61h19.51v16.11H739.5" stroke="#f90" class="G"/><g transform="translate(245.7 284.5)" class="C"><path d="M0 5.63v23.75" class="F G"/><g stroke-width="1.6" class="E"><use transform="matrix(1.25 0 0 1.25 0 0)" xlink:href="#A"/><use transform="matrix(-1.25 0 0 -1.25 0 70)" xlink:href="#A" y="28"/></g></g><g class="D"><path d="M248 219.5c-5.15-13.54-10.3-27.08 10-25 20.3 2.09 66.04 19.79 70 30s-33.87 12.92-45 20c-11.13 7.09 4.44 18.54 20 30" class="F G"/><g class="I"><path d="M315.92 165.71h157.16c2.04 0 3.68 1.64 3.68 3.68v97.6c0 2.04-1.64 3.68-3.68 3.68H315.92c-2.04 0-3.68-1.64-3.68-3.68v-97.6c0-2.04 1.64-3.68 3.68-3.68h0z"/><path d="M438.43 166.45H315.91c-1.64 0-2.94 1.36-2.94 2.94V267c0 1.64 1.36 2.94 2.94 2.94h44.16l78.36-103.49z" opacity=".3" class="H"/><path d="M319.09 172.67h150.82c.39 0 .73.34.73.74v89.5c0 .4-.34.74-.73.74H319.09c-.4 0-.74-.34-.74-.74v-89.5c0-.4.34-.74.74-.74h0z"/><path d="M319.09 173.41h150.82v89.51H319.09v-89.51zm-19.59 97.15h190v4.81h-190v-4.81z"/><path d="M382.67 270.56h24.74a2.4 2.4 0 0 1-2.43 2.43h-19.93c-1.3-.05-2.38-1.13-2.38-2.43h0zm-78.07 9.62h179.8c2.84 0 5.1-2.15 5.1-4.81h0-190c0 2.66 2.32 4.81 5.1 4.81h0z"/><path d="M332.05 172.39l123.42.57H332.05v-.57zm-7.36 91.04l129.37.57H324.69v-.57zm-18.4 6.85h76.37v.57h-76.37v-.57zm101.12 0h74.39v.57h-74.39v-.57z" class="H"/></g><path stroke-opacity=".88" d="M241.5 209.5h7.5v10h-7.5z" class="J"/></g><path d="M227.5 219.3h35v36.06l-2.06 5.37v9.43h-30.52v-9.43l-2.42-5.37V219.3m4.47 51h27.26v4.19h-27.26z" class="C G"/><g class="C"><circle cx="246.21" cy="233.26" r="3.26"/><circle cx="252.62" cy="241.41" r="4.89"/><circle cx="239.91" cy="248.91" r="7.39"/></g><path d="M544.5 99.5h115v65h-115z" class="D"/><path d="M552 114.5h20m-20 7.5h20m-20 7.5h20m-20 7.5h20m-20 7.5h20m-20 7.5h20" class="C F"/><path d="M582 111.5h5v5h-5zm9 0h5v5h-5zm9 0h5v5h-5zm9 0h5v5h-5zm9 0h5v5h-5zm9 0h5v5h-5zm9 0h5v5h-5z" class="B D"/><path d="M645 111.5h5v5h-5z" class="B C E"/><path d="M582 118.9h5v5h-5z" class="B D"/><path d="M591 118.9h5v5h-5z" class="B C E"/><path d="M600 118.9h5v5h-5zm9 0h5v5h-5zm9 0h5v5h-5z" class="D B"/><path d="M627 118.9h5v5h-5z" class="B C E"/><path d="M636 118.9h5v5h-5zm9 0h5v5h-5zm-63 7.4h5v5h-5zm9 0h5v5h-5zm9 0h5v5h-5zm9 0h5v5h-5zm9 0h5v5h-5zm9 0h5v5h-5zm9 0h5v5h-5zm9 0h5v5h-5zm-63 7.4h5v5h-5zm9 0h5v5h-5zm9 0h5v5h-5z" class="D B"/><path d="M609 133.7h5v5h-5z" class="B C E"/><path d="M618 133.7h5v5h-5zm9 0h5v5h-5zm9 0h5v5h-5zm9 0h5v5h-5zm-63 7.4h5v5h-5z" class="D B"/><path d="M591 141.1h5v5h-5z" class="B C E"/><path d="M600 141.1h5v5h-5zm9 0h5v5h-5zm9 0h5v5h-5zm9 0h5v5h-5zm9 0h5v5h-5zm9 0h5v5h-5z" class="D B"/><path d="M582 148.5h5v5h-5z" class="B C E"/><path d="M591 148.5h5v5h-5z" class="B D"/><path d="M600 148.5h5v5h-5z" class="B C E"/><path d="M609 148.5h5v5h-5zm9 0h5v5h-5zm9 0h5v5h-5zm9 0h5v5h-5zm9 0h5v5h-5z" class="D B"/><g transform="translate(672 99.5)" class="D"><path d="M.6 64.5l-.56-60" class="F"/><use transform="matrix(1 -.0093 .0093 1 0 0)" xlink:href="#A" class="J"/></g><g transform="translate(672.6 164)" class="D"><path d="M0 0h45.4" class="F"/><use transform="matrix(0 1 -1 0 49.9 -49.9)" x="49.9" xlink:href="#A" class="J"/></g><g fill="#f90" stroke="none" class="H"><path d="M718.25 133.2c0 .34-.27.61-.61.61s-.62-.27-.62-.61.28-.62.62-.62.61.28.61.62z"/><use xlink:href="#B"/><use xlink:href="#B" x="-40.01" y="2.66"/><path d="M701.37 135.73c0 .34-.27.61-.61.61s-.62-.27-.62-.61c0-.17.06-.32.18-.44s.27-.18.44-.18c.16 0 .32.06.43.18.12.12.18.27.18.44z"/><use xlink:href="#C"/><use xlink:href="#B" x="-11.88" y="5.83"/><use xlink:href="#C" x="-33.77" y="7.08"/><use xlink:href="#B" x="-45.53" y="8.17"/><path d="M690.12 130.67c0 .16-.06.32-.18.43-.11.12-.27.18-.43.18-.17 0-.32-.06-.44-.18-.12-.11-.18-.27-.18-.43 0-.17.06-.32.18-.44s.27-.18.44-.18c.16 0 .32.06.43.18.12.12.18.27.18.44z"/><use xlink:href="#B" x="-28.76" y="5.19"/></g><path d="M672.83 144.11l5.78-1.45m0-.01l5.42-5.42 5.42-6.5 5.78 9.03 5.42-3.97 5.78 1.08 5.79 3.62 5.42-7.23 6.5 1.44" stroke="#f90" class="F"/><path d="M544.5 174.5h20m-20 6.43h20m-20 6.43h20m-20 6.43h20m-20 6.42h20m-20 6.43h20m-20 6.43h20m-20 6.43h20m6-45h40m-40 6.43h40m-40 6.43h40m-40 6.43h40m-40 6.42h40m-40 6.43h40m-40 6.43h40m-40 6.43h40m6-45h12m-12 6.43h12m-12 6.43h12m-12 6.43h12m-12 6.42h12m-12 6.43h12m-12 6.43h12m-12 6.43h12m6-45h86m-86 6.43h86m-86 6.43h86m-86 6.43h86m-86 6.42h86m-86 6.43h86m-86 6.43h86m-86 6.43h86" class="C F"/><ellipse cx="390.91" cy="568.12" fill="#e0e0e0" rx="206.41" ry="4.21" stroke-opacity=".02"/><g class="G"><g class="D H I"><use xlink:href="#D"/><use xlink:href="#E"/><path d="M297.67 498.06a29.7 29.7 0 0 1-29.68 29.68A29.7 29.7 0 0 1 247 477.07a29.7 29.7 0 0 1 41.98 0 29.7 29.7 0 0 1 8.69 20.99z"/><path d="M287.08 498.06a19.1 19.1 0 0 1-19.09 19.09 19.1 19.1 0 0 1-19.09-19.09 19.1 19.1 0 0 1 19.09-19.09 19.1 19.1 0 0 1 19.09 19.09z"/><path d="M306.33 352.12l10.27 3.17-45.36 147.12-10.27-3.17 45.36-147.12z"/><path d="M266.68 415.66a120.8 120.8 0 0 0-29.82 10.46c-2.36 1.19-4.77 2.54-6.24 4.74-.53.82-.93 1.77-.86 2.74.21 2.81 3.76 3.8 6.56 4.11 20.3 2.26 40.71 6.6 58.61 16.43s33.15 25.73 38.77 45.36c1.08 3.76 1.79 7.62 2.61 11.44.37 1.76 1.28 3.92 3.07 3.85 1.07-.04 1.91-.95 2.45-1.88 1.49-2.58 1.67-5.7 1.74-8.68.41-17.98-1.83-36.5-10.41-52.3-7.23-13.3-18.9-24.19-32.77-30.25-13.88-6.06-29.88-7.2-44.41-2.95l10.7-3.07zm210.13 60.67l-9.54 2.96-23.01-74.34 9.54-2.95 23.01 74.33z"/><use xlink:href="#F"/><use xlink:href="#F" x="2.36" y="7.64"/><use xlink:href="#F" x="4.73" y="15.29"/><use xlink:href="#F" x="7.1" y="22.93"/><use xlink:href="#F" x="9.46" y="30.58"/><use xlink:href="#F" x="11.83" y="38.22"/><use xlink:href="#F" x="14.19" y="45.86"/><use xlink:href="#F" x="16.56" y="53.51"/><path d="M590.2 401.67a944.1 944.1 0 0 0-60.57-31.49 115.9 115.9 0 0 1-22.19 13.08c26.07 10.53 54.68 13.68 80.63 24.49l2.13-6.08z"/><path d="M608.38 444.02l-.37-1.07c-5.84-14.5-9.64-29.74-13.42-44.91a23.8 23.8 0 0 1-11.26-.18c5.51 15.74 11.04 31.47 18.88 46.16h6.17z"/><path d="M601.79 400.24h-22.36v-3.62a5 5 0 0 1 5.02-5.02h17.33a4.3 4.3 0 0 1 4.28 4.28v.09c0 2.36-1.91 4.27-4.27 4.27zm-116.14-48.51c35.02-16.12 77.98-13.63 110.9 6.43.27 1.45-1.39 2.43-2.78 2.94-19.92 7.27-40.77 11.85-60.63 19.3-8.39 3.15-16.58 6.8-24.77 10.45-28.11 12.54-56.54 25.27-80.74 44.3-.4.31-.85.65-1.36.63-.47-.02-.87-.33-1.24-.63l-18.73-15.33c-1.9-1.55-4-3.63-3.52-6.04a187.3 187.3 0 0 0 73.25-30.97c5.23-3.69 10.47-7.89 13.1-13.73s1.79-13.72-3.48-17.35z"/><path d="M405.03 418.7l5.46-2.8a388.4 388.4 0 0 1 15.42-8.03c-7.57 2.46-15.3 4.45-23.13 5.91-.37 1.87.81 3.54 2.25 4.92zM470 388.67c27.11-10.72 55.14-19.4 83.69-25.39a445.8 445.8 0 0 1 37.93-6.21c-16.72-1.75-33.5-2.27-50.37-1.33-17.02.95-34.16 3.05-50.7 7.25a16.7 16.7 0 0 1-1.42 6.09c-2.63 5.84-7.87 10.04-13.1 13.73a183.4 183.4 0 0 1-14.66 9.33l8.63-3.47z"/><path d="M469.42 399.91c-13.92 5.58-27.74 11.47-41.13 18.23-4.93 2.48-9.73 5.2-14.65 7.69l11.39 9.32c.37.3.77.62 1.24.63.51.02.96-.31 1.36-.63 24.2-19.03 52.63-31.76 80.74-44.29 8.19-3.66 16.38-7.31 24.77-10.46 5.91-2.22 11.91-4.17 17.95-6.03-27.87 6.28-55.16 14.9-81.67 25.54zm27.98-32.06c-.54 1.26-1.47 2.31-2.4 3.32-7.73 8.33-16.95 15.12-26.42 21.39-7.42 4.91-15.09 9.57-23.43 12.66-2.48.93-5.15 1.72-7.75 1.21-2.59-.51-4.77-2.24-6.69-4.07-6.3-5.99-11.07-13.59-13.73-21.88-.34-1.03-.63-2.17-.22-3.17.73-1.76 3.06-2.03 4.96-2.06a163.9 163.9 0 0 0 45.68-7.34c3.43-1.07 6.87-2.27 9.84-4.29 2.98-2.01 5.48-4.95 6.27-8.45.37-1.6.48-3.48 1.8-4.47.65-.49 1.51-.66 2.33-.66 2.74-.01 5.3 1.62 6.95 3.81 1.64 2.19 2.49 4.88 3.02 7.56.41 2.14.64 4.43-.21 6.44z"/><path d="M315.48 378.56c-2.26-3.22-1.26-7.87 1.25-10.91 2.5-3.03 6.17-4.82 9.72-6.52 15.76-7.55 31.64-15.14 48.54-19.56 9.68-2.53 15.94-2.09 25.01 2.13 20.09 9.35 26.11 10.27 31.31 21.03 5.19 10.76 5.9 22.28 7.06 34.17.4 4.08.71 8.16.93 12.25l-57.09-7.4c-5.58-.72-11.16-1.45-16.65-2.66-15.93-3.52-30.65-11.06-45.05-18.73-1.87-1-3.81-2.06-5.03-3.8zm-2.73-73.57a136.4 136.4 0 0 1 21.81 10.94 350.9 350.9 0 0 0-80.03 37.72c-4.34 2.76-8.65 5.64-12.32 9.24-1.04-2.7.64-5.63 2.36-7.96 16.04-21.83 40.21-35.97 63.68-49.5.78-.45 1.6-.91 2.49-.93a5.4 5.4 0 0 1 2.01.49z"/><use xlink:href="#D" x="266.34"/><use xlink:href="#E" x="266.35"/><path d="M564.01 498.06a29.7 29.7 0 0 1-29.68 29.68 29.7 29.7 0 0 1-29.68-29.68 29.7 29.7 0 0 1 29.68-29.68 29.7 29.7 0 0 1 29.68 29.68z"/><path d="M535.7 531.04c-2 0-4.02-.2-5.99-.58l-117.58-23 7.2-34.21 115.15-5a30.8 30.8 0 0 1 25.76 11.81c5.93 7.51 8.05 17.16 5.82 26.47l-.15.64c-3.36 14.06-15.78 23.87-30.21 23.87zm-117.31-27.73l112.33 21.97a26.1 26.1 0 0 0 4.98.49 25.7 25.7 0 0 0 25.08-19.82l.15-.64c1.85-7.74.09-15.75-4.83-21.99a25.6 25.6 0 0 0-21.39-9.8l-111.06 4.81-5.26 24.98z"/><path d="M552.6 483.34l-6.19-1.01-89.71-37.69s-47.35 36.45-25.24 39.56c16.45 2.32 24.11 14.11 26.96 20 1.06 2.2 3.04 3.81 5.39 4.46l50.83 13.86 37.66-5.53a10.7 10.7 0 0 0 9.16-10.48l.13-12.49c.05-5.29-3.77-9.82-8.99-10.68zm-39.05 30.46l-42.99-10.98-3.27-13.09s24.53 6.08 36.21 11.22c11.69 5.14 10.05 12.85 10.05 12.85z"/><path d="M561.58 494.02a10.7 10.7 0 0 0-8.98-10.68l-6.19-1.01-89.71-37.69s-6.34 4.88-13.3 11.22l118.13 43.56.05-5.4zm-107.52-33.75c21.14 9.91 42.76 18.77 64.78 26.53l-2.92 19.85c-8.1-7.62-18.49-12.41-29.14-15.61-10.65-3.19-21.68-4.91-32.57-7.18-1.37-.28-2.82-.63-3.78-1.65-1.21-1.29-1.26-3.26-1.07-5.02a28 28 0 0 1 5.38-13.64l-.68-3.28z"/><path d="M548.28 498.06a14.9 14.9 0 0 1-14.89 14.89 14.9 14.9 0 0 1-14.88-14.89 14.9 14.9 0 0 1 14.88-14.88 14.9 14.9 0 0 1 14.89 14.88z"/><path d="M544.23 498.06a10.8 10.8 0 1 1-21.67 0c0-2.87 1.14-5.63 3.17-7.66s4.79-3.17 7.66-3.17a10.8 10.8 0 0 1 10.84 10.83zM311.36 370.87c-2.55-.48-5.15.29-7.62 1.06l-28.28 8.73c-7.16 2.21-14.77 4.72-19.44 10.57 2.87 2.86 7.73.74 11.74 1.35 5.19.79 8.3 6.02 10.69 10.7l9.54 18.72c7.54-9.45 23.75-9.6 29.31-20.34 1.75-3.4 2.08-7.33 2.38-11.15.31-3.9.6-7.91-.51-11.67-1.12-3.75-3.96-7.25-7.81-7.97z"/><path d="M435.31 530.22v-22.03l32.91-63.55s-29.44-42.52-38.32-45.8c-8.88-3.27-119.62-26.63-119.62-26.63l-25.7 31.31 120.56 80.84-15.42 47.19 45.59-1.33z"/><path d="M248.04 427.43c-1.13 1.56-2.29 3.44-1.77 5.3.42 1.54 1.86 2.55 3.2 3.42l19.18 12.46c2.98 1.94 6.05 3.91 9.52 4.67 4.8 1.04 9.75-.37 14.53-1.49a127.2 127.2 0 0 1 17.77-2.85c5.06-.45 10.42-.54 14.89 1.86 2.82 1.52 5.06 3.92 7.13 6.37 17.49 20.71 26.17 47.19 36.24 72.37.58 1.45 1.2 2.96 2.37 4.01 1.62 1.47 3.95 1.76 6.12 1.99 7.45.78 15.6 1.4 21.79-2.81 3.11-2.11 5.36-5.23 7.55-8.29 19.18-26.79 38.6-54.03 49.72-85.05.58-1.6 1.13-3.27.98-4.96-.33-3.74-3.88-6.27-7.2-8.01-36.93-19.36-84.77-6.61-121.15-26.97-8.07-4.52-15.34-10.57-23.98-13.88-1.94-.74-3.98-1.34-6.06-1.25-3.01.13-5.75 1.7-8.31 3.3-16.55 10.38-31.08 23.97-42.52 39.81z"/><path d="M316.86 448.72l12.52-13.34 25.6-26.48c-9.1-1.97-17.87-4.87-26.07-9.46l-1.75-1.01c-.19.28-.37.57-.55.85l-18.86 29.54-14.05 22.75c5.53-1.24 11.13-2.13 16.77-2.64 2.11-.18 4.26-.3 6.39-.21zm58.66-36.7l-8.65-1.04c-2.87 3.3-5.82 6.53-8.86 9.68l-30.44 31.58c.79.61 1.54 1.29 2.25 2 13.95-15.29 29.85-28.89 45.7-42.22zm81.75 22.41c-.34-3.74-3.89-6.27-7.21-8.01-5.56-2.92-11.38-5.1-17.36-6.78-4.17 1.71-8.29 3.55-12.28 5.58-12.31 13.72-25.59 26.59-37.8 40.39a1388.9 1388.9 0 0 0-21.26 24.7c2.46 9.62 3.72 19.52 6.39 29.18l4.16 14.66c1.54.95 3.48 1.2 5.32 1.39 7.44.78 15.59 1.4 21.78-2.81 3.11-2.11 5.36-5.24 7.55-8.29 19.19-26.8 38.61-54.04 49.73-85.05.57-1.6 1.13-3.27.98-4.96zm-146.62-66.55a20.8 20.8 0 0 1-10.13-14.36 20.8 20.8 0 0 1 4.75-16.91c-.66-2.45-3.05-4.12-5.53-4.63-2.49-.51-5.05-.06-7.53.48-19.16 4.19-37.06 13.94-51.08 27.64-4.88 4.77-4.76 12.66.37 17.15 5.2 4.54 9.97 9.57 14.22 15 10.45-6.24 21.16-12.58 33.1-14.93 8.08-1.59 17.94-2.18 21.83-9.44z"/><path d="M283.54 359.13c2.63.41 4.78 2.26 6.77 4.03 1.61 1.45 3.37 3.24 3.14 5.39-.28 2.57-3.14 3.9-5.57 4.78a214.5 214.5 0 0 0-29.64 13.41c-1.98-.62-2.89-3.06-2.48-5.09s1.79-3.72 3.18-5.25c4.52-5.02 9.61-9.52 15-13.59 2.82-2.12 6.11-4.22 9.6-3.68zm109.86-10.96c.41-2.9-2.5-5.25-5.33-6.02-6.14-1.69-12.56.78-18.44 3.22l-38.42 15.91c-3.67 1.52-7.84 3.64-8.54 7.55l33.83 6.85c3.84.78 7.95 1.54 11.6.11 2.82-1.11 4.99-3.39 7.04-5.62a584.2 584.2 0 0 0 16.17-18.31c.92-1.09 1.88-2.27 2.09-3.69zm112.9 5.33c21.49-7.03 44.64-6.29 67.23-5.49-25.15-6.66-52.24-5.83-76.94 2.36-.29 2.04 1.67 3.82 3.7 4.15 2.02.32 4.06-.39 6.01-1.02zm-250.63 19.01c-1.84 2.41-3.59 5.18-3.43 8.21a55.3 55.3 0 0 1 29.33-24.05l-1.51-3.89c-9.54 4.51-17.98 11.34-24.39 19.73zm47.81 22.79c.75-1.51 1.53-3.18 1.12-4.81-.55-2.2-3.14-3.37-5.39-3.11-2.25.25-4.22 1.57-6.09 2.86-16.43 11.4-32.21 24.56-42.4 41.76a42.1 42.1 0 0 1 27.01-6.82c3.41.32 7.17.98 10.01-.93 1.8-1.21 2.84-3.24 3.82-5.18l11.92-23.77zm107.22 22.93c2.45.34 5.62 1.74 5.07 4.15-.17.79-.75 1.43-1.31 2.02l-57.35 60.84c-.04-10.86-8.22-19.76-15.87-27.47-3.88-3.9-7.8-7.84-12.48-10.75-4.67-2.9-10.23-4.71-15.68-3.93a228.5 228.5 0 0 1 26.91-34c21.87 9.62 47.04 5.89 70.71 9.14zm-11.41 100.8l2.23-5.1c.55-1.26 1.12-2.63.84-3.98-.27-1.35-1.8-2.52-3.03-1.9-5.07 2.75-9.91 5.91-14.47 9.43-2.37 1.83-4.9 4.33-4.47 7.29a24.4 24.4 0 0 0 10.54.92c2.06-.28 4.18-.87 5.69-2.29 1.26-1.18 1.98-2.8 2.67-4.37zm-101.51-76.74c1.55.52 1.83 2.59.47 3.5-6.43 4.27-15.24 4.69-22.74 2.31-7.6-2.41-14.14-7.21-20.24-12.41a2.6 2.6 0 0 1 .67-4.36c6.59-2.71 14.7-1.28 21.48 1.55 6.9 2.89 13.31 7.06 20.36 9.41zm75.19 88.61c1.1-5.98 4.72-11.26 9.17-15.41s9.72-7.29 14.94-10.41c1.33-.79 2.71-1.6 4.24-1.86s3.28.15 4.19 1.41c1.05 1.45.69 3.46.23 5.19a102.8 102.8 0 0 1-8.6 22.12c22.28-27.38 41.62-56.52 56.36-88.59 1.31-2.85 3.17-6.69 2.22-9.69-1.33-4.21-8.01-6.67-12.3-7.73a655.2 655.2 0 0 0-73.41 57.42c-2.43 2.19-4.91 4.5-6.22 7.51-1.76 4.07-1.1 8.76-.15 13.09a119.3 119.3 0 0 0 9.33 26.95zm4.77-155.18c-.9 1.15-1.85 2.59-1.34 3.96.46 1.23 1.87 1.75 3.12 2.13l54.27 16.58c1.2-10.22-1.41-20.83-7.19-29.33s-14.7-14.81-24.64-17.45c-1.22-.33-2.52-.6-3.74-.28-1.7.45-2.9 1.91-3.99 3.3l-16.49 21.09z"/><path d="M427.99 395.26l-34.3-10.56c4.62-4.07 9.42-8.24 15.28-10.12s13.12-.85 16.82 4.07c3.45 4.58 2.91 10.92 2.2 16.61zm-105.07-15.17c33.17 8.34 66.38 16.69 100.1 22.4a878 878 0 0 0-100.1-22.4zm98.19 34.74a31.1 31.1 0 0 0 9.86-11.2c-.71.22-1.56-.24-1.76-.96a225.1 225.1 0 0 0-8.1 12.16zm1.62 108.16c.69-.56 1.29-1.24 1.78-1.99 2.43-3.64 2.36-8.56 4.97-12.07a73.8 73.8 0 0 0-17.6 16.12c3.76.21 7.91.3 10.85-2.06zM314.97 386.3c2.68-2.08 4.42-5.33 4.67-8.71a49 49 0 0 0-4.67 8.71zm147.98 58.87c-12.49 16.55-22.83 34.74-30.65 53.94l28.84-46.29 1.81-7.65zm-8.75-10.81c0 1.42-1.15 2.57-2.57 2.57-.68 0-1.34-.27-1.82-.75a2.6 2.6 0 0 1-.75-1.82c0-.68.27-1.34.75-1.82s1.14-.75 1.82-.75c1.42 0 2.57 1.15 2.57 2.57zM308.88 444.4a2.6 2.6 0 0 1-2.57 2.57c-.68 0-1.34-.27-1.82-.75a2.6 2.6 0 0 1-.75-1.82c0-1.42 1.15-2.57 2.57-2.57a2.6 2.6 0 0 1 1.82.75c.48.48.75 1.14.75 1.82zm162.85 14.02c0 1.42-1.15 2.57-2.57 2.57-.68 0-1.34-.27-1.82-.75a2.6 2.6 0 0 1-.75-1.82c0-.68.27-1.34.75-1.82s1.14-.75 1.82-.75a2.6 2.6 0 0 1 1.82.75c.48.48.75 1.14.75 1.82zm-157.86-78.58a2.6 2.6 0 0 1-2.57 2.57c-.68 0-1.34-.27-1.82-.75a2.6 2.6 0 0 1-.75-1.82c0-1.42 1.15-2.57 2.57-2.57s2.57 1.15 2.57 2.57zm141.5 104.51a2.6 2.6 0 0 1-2.57 2.57c-.68 0-1.34-.27-1.82-.75a2.6 2.6 0 0 1-.75-1.82c0-.68.27-1.34.75-1.82s1.14-.75 1.82-.75a2.6 2.6 0 0 1 1.82.75c.48.48.75 1.14.75 1.82zm27.04-118.47c-13.49 6.38-28.19 10.18-43.08 11.14 14.64-2.6 29.43-5.25 43.08-11.14zm10.3 3.1a20.5 20.5 0 0 0 .33-12.3c-.73 4.07-1.45 8.31-.33 12.3zm86.46 32.46a153.2 153.2 0 0 0-46.89-18.31l46.89 18.31zm9.81-5.41a12.5 12.5 0 0 0 10.86-1.17 21.6 21.6 0 0 0-10.86 1.17zm-284.07-52.32l-2.57 6.54 10.28 7.71 11.21-5.61 22.46 7.2c.98.31 2.06.04 2.77-.72l.04-.04a2.7 2.7 0 0 0-1-4.36l-33.38-12.59-9.81 1.87z"/><path d="M282.54 366a133.4 133.4 0 0 0-11.27 6.57c-2.74 1.78-5.61 3.94-6.41 7.11 6.84-1.81 13.23-4.99 19.51-8.24 1.11-.57 2.26-1.18 2.99-2.18.74-1 .94-2.52.11-3.45-1.19-1.32-3.35-.63-4.93.19zm159.81 24.26c-1.6 2.25-1.68 5.21-1.69 7.97-.01 1.82.18 4 1.78 4.88 1.41.78 3.15.08 4.6-.64 15.91-7.91 30.46-18.55 42.82-31.3l-40.71 14.91c-2.54.93-5.24 1.98-6.8 4.18zm-126.3-38.76c0 .41-.17.81-.46 1.1s-.69.46-1.1.46c-.86 0-1.56-.7-1.56-1.56s.7-1.56 1.56-1.56c.41 0 .81.16 1.1.46.29.29.46.68.46 1.1zm4.85 3.11c1.3 2.05 4.3 2.59 6.47 1.51 2.18-1.08 3.52-3.43 3.9-5.83.23-1.44.13-3.02-.7-4.22-1.2-1.74-3.71-2.24-5.67-1.47-1.97.77-3.39 2.57-4.15 4.53-.68 1.77-.86 3.88.15 5.48z"/><path d="M324.43 346.28c-2.76-.16-5.32 1.9-6.29 4.49-.97 2.58-.55 5.52.57 8.04a36.9 36.9 0 0 1 15.95 13.32c-1.32.32-1.49 2.54-.24 3.06 1.99-.21 2.89-2.86 2.13-4.71-.76-1.84-2.52-3.04-4.16-4.19-2.99-2.1-5.95-4.52-7.53-7.83-1.57-3.3-1.36-7.71 1.38-10.14l-1.81-2.04z"/></g><path d="M239.5 82h-85v90h45.21l30.35 17.5V172h9.44V82m-127 142.5v100h79.53v-53.19l15.47-35.7h-15.47V224.5H112.5" stroke="#f90"/></g><path d="M181.22 234.41h-50.74a2.8 2.8 0 0 0-2.76 2.84v24.16l-6.39 5.89c-.6.55-.91 1.31-.91 2.15v5.53h4.76v4.54l-2.19.99a4.5 4.5 0 0 0-2.61 4.11v21.83c0 2.47 1.94 4.44 4.31 4.44h54.91c2.4 0 4.31-2.01 4.31-4.44v-69.24a2.7 2.7 0 0 0-2.69-2.8zm-43.08 24.38h-4.84v-18.6h4.84v18.6zm8.16 0h-4.84v-18.6h4.84v18.6zm8.16 0h-4.84v-20.2h4.84v20.2zm8.15 0h-4.83v-18.6h4.83v18.6zm8.13 0h-4.84v-20.2h4.84v20.2zm8.15 0h-4.84v-18.6h4.84v18.6z" stroke="none" class="E H"/><path d="M212.7 162.5h15.75v-11.96H212.7v11.96zm9.77-6.85h3.35v3.2h-3.35v-3.2zm-7 0h3.35v3.2h-3.35v-3.2zm-33.85-17.22c8.75 0 15.9-7.14 15.9-15.89v-14.15a10.1 10.1 0 0 1 10.06-10.06 10.1 10.1 0 0 1 10.07 10.06v7.44h-4.23l-3.8 15.02v16.77h21.88v-16.77l-3.65-15.02h-4.23v-7.44c0-8.75-7.14-15.9-15.89-15.9s-15.9 7.15-15.9 15.9v14.15a10.1 10.1 0 0 1-10.06 10.06H161.5v5.83h20.12z" stroke-width="2.5" class="C F I"/></svg>